<svg width="66" height="65" viewBox="0 0 66 65" fill="none" xmlns="http://www.w3.org/2000/svg">
<g clip-path="url(#clip0_22_2)">
<path d="M56 0H10C4.47715 0 0 4.47715 0 10V55C0 60.5228 4.47715 65 10 65H56C61.5228 65 66 60.5228 66 55V10C66 4.47715 61.5228 0 56 0Z" fill="#F6F8FF"/>
<path d="M10.0603 32.5022L6.56897 29.2927V37.9239H10.0603V32.5022Z" fill="#F95428"/>
<path d="M12.6409 43.3455H3.9884V55.9035H12.6409" fill="#4A6F93"/>
<path d="M37.3252 40.9866H23.0092C17.8244 40.9866 13.6211 45.126 13.6211 50.2325V63.8042H46.7133V50.2325C46.7134 45.126 42.5101 40.9866 37.3252 40.9866Z" fill="#5D9EBA"/>
<path d="M28.7937 40.9866H23.0092C17.8244 40.9866 13.6211 45.126 13.6211 50.2325V63.8042H19.4055V50.2325C19.4055 45.126 23.6089 40.9866 28.7937 40.9866Z" fill="#508DA3"/>
<path d="M41.5021 41.9509L30.1674 52.9151L18.8311 41.9509C20.0894 41.3335 21.5073 40.9867 23.0085 40.9867H37.3247C38.8259 40.9866 40.2438 41.3333 41.5021 41.9509Z" fill="#F7CBA4"/>
<path d="M14.1648 28.3495C12.2825 28.2672 10.7842 26.738 10.7842 24.8646C10.7842 22.9391 12.369 21.3768 14.3256 21.3768C14.5017 21.3768 14.6747 21.3888 14.8447 21.4142" fill="#E0B394"/>
<path d="M46.2386 30.4465C46.0488 33.8103 44.3381 36.9513 41.5207 38.9665L40.106 39.9786L39.6794 40.2835L35.2894 43.426C32.2352 45.6117 28.0987 45.6117 25.043 43.426L18.8116 38.9665C15.5191 36.6104 13.7385 32.7144 14.1301 28.7243L15.2109 17.7091C15.2413 17.3923 15.2837 17.0783 15.3338 16.7688C16.4981 9.64962 22.7507 4.33496 30.1661 4.33496C34.0355 4.33496 37.5891 5.78211 40.2683 8.17709C42.9461 10.5721 44.7509 13.9164 45.1228 17.7091L46.2035 28.7243C46.26 29.3013 46.2721 29.8769 46.2386 30.4465Z" fill="#F7CBA4"/>
<path d="M18.0073 30.8954C17.9025 32.64 18.4794 34.3563 19.621 35.6944L26.1336 43.5759C26.4737 43.9751 26.8592 44.31 27.2766 44.5776C26.4934 44.3085 25.7404 43.9228 25.0437 43.425L18.8123 38.9669C15.5198 36.6108 13.7392 32.7148 14.1308 28.7246L15.2102 17.7095C15.9479 10.1972 22.3022 4.44743 29.9423 4.33838C25.2365 4.45048 19.9079 8.81883 19.6301 13.4713L18.0073 30.8954Z" fill="#E0B394"/>
<path d="M42.8687 37.8362C45.346 30.5586 45.044 17.8497 33.0518 18.5972C29.9809 18.7885 27.5172 17.4909 25.7852 16.0885C23.9014 14.5651 22.8813 12.9162 22.8813 12.9162C22.8813 12.9162 19.2807 19.3342 14.9331 20.5362L14.8466 21.4137H14.845C14.675 21.3884 14.502 21.3764 14.3259 21.3764C13.6352 21.3764 12.9901 21.5708 12.4452 21.9086C10.5279 18.1307 11.381 12.4648 12.8626 9.62724C15.595 4.39472 21.5015 7.04387 21.5015 7.04387C21.5015 5.64903 22.2059 4.56814 23.2122 3.73393C25.7382 1.64097 30.1677 1.10574 30.1677 1.10574C46.4951 0.856018 50.571 13.1643 51.3269 16.0691C54.5496 28.4611 42.8687 37.8362 42.8687 37.8362Z" fill="#9691C6"/>
<path d="M25.7853 16.0886C23.9015 14.5651 22.8815 12.9162 22.8815 12.9162C22.8815 12.9162 19.2808 19.3343 14.9332 20.5363L14.8467 21.4138H14.8452C14.6751 21.3884 14.5021 21.3764 14.326 21.3764C13.6354 21.3764 12.9902 21.5708 12.4453 21.9086C10.5281 18.1307 11.3812 12.4648 12.8627 9.62726C15.5951 4.39474 21.5016 7.04388 21.5016 7.04388C21.5016 5.64904 22.206 4.56816 23.2124 3.73395C19.0652 9.98616 25.7853 16.0886 25.7853 16.0886Z" fill="#7F7DAD"/>
<path d="M55.0829 52.6443H46.0238V63.8029H55.0829V52.6443Z" fill="#E070B3"/>
<path d="M51.1843 43.7281H49.9226C49.0676 43.7281 48.3745 44.4108 48.3745 45.2527V52.6449H52.7322V45.2527C52.7323 44.4108 52.0392 43.7281 51.1843 43.7281Z" fill="#4A6F93"/>
<path d="M11.0677 37.9232H5.56201V43.3455H11.0677V37.9232Z" fill="#FCEA81"/>
<path d="M19.4814 62.7576H14.8356V49.7676C14.8356 47.2429 16.1459 44.9523 18.341 43.6398C18.8785 43.3184 19.0496 42.6288 18.7233 42.0995C18.397 41.5702 17.6968 41.4016 17.1593 41.7229C14.2785 43.4453 12.5586 46.4528 12.5586 49.7676V63.8788C12.5586 64.498 13.0683 65 13.6971 65H19.4814C20.1102 65 20.6199 64.498 20.6199 63.8788C20.6199 63.2596 20.1102 62.7576 19.4814 62.7576Z" fill="black"/>
<path d="M42.4693 62.7576H31.3817V53.4604L39.5416 45.5676C39.9902 45.1335 39.9967 44.4237 39.5562 43.9821C39.1157 43.5403 38.3949 43.5339 37.9461 43.9677L30.2431 51.4186L22.54 43.9676C22.0914 43.5338 21.3705 43.5401 20.9299 43.9819C20.4895 44.4237 20.4959 45.1337 20.9445 45.5675L29.1044 53.4603V62.7575H23.276C22.6472 62.7575 22.1375 63.2595 22.1375 63.8787C22.1375 64.498 22.6472 65 23.276 65H42.4691C43.0979 65 43.6076 64.498 43.6076 63.8787C43.6076 63.2595 43.0981 62.7576 42.4693 62.7576Z" fill="black"/>
<path d="M45.9984 46.083C46.5203 45.7373 46.6588 45.0407 46.3079 44.5268C45.5372 43.3981 44.5059 42.4284 43.3256 41.7227C42.7881 41.4013 42.0879 41.5701 41.7616 42.0992C41.4353 42.6284 41.6067 43.3181 42.1439 43.6395C43.0441 44.1777 43.8306 44.9172 44.4184 45.7781C44.6382 46.0999 44.9978 46.2738 45.364 46.2738C45.5827 46.274 45.8035 46.2123 45.9984 46.083Z" fill="black"/>
<path d="M9.72168 24.9393C9.72168 27.0136 11.1032 28.7706 13.0276 29.3479C12.8478 33.4861 14.7971 37.5002 18.2195 39.9483L24.4508 44.4078C26.1828 45.6475 28.2122 46.2669 30.2426 46.2669C32.2725 46.2669 34.3032 45.6471 36.0357 44.4078L42.2669 39.9484C42.7765 39.5839 43.2617 39.1783 43.7096 38.7427C44.2125 38.3292 48.2518 34.8984 50.7607 29.4077C53.2077 24.0525 54.5824 15.701 47.2353 6.32625C43.9094 2.08118 37.0478 -0.435426 30.1597 0.062486C30.1414 0.0638825 30.123 0.0656598 30.1047 0.067818C29.7459 0.111236 22.0577 1.09462 20.6566 5.63829C20.0104 5.47553 19.1864 5.33106 18.2874 5.327C16.3145 5.31824 13.6013 5.98094 11.9256 9.18931C10.2974 12.3079 9.61494 17.7547 11.1308 21.6473C10.2621 22.4845 9.72168 23.6507 9.72168 24.9393ZM11.9987 24.9393C11.9987 23.889 12.6976 22.9974 13.6609 22.689L13.2371 27.0107C12.4963 26.6071 11.9987 25.831 11.9987 24.9393ZM41.9499 37.2991C41.6287 37.5982 41.286 37.8784 40.9286 38.1341L34.6975 42.5935C32.0325 44.4996 28.4526 44.4996 25.7893 42.5936L19.5577 38.1338C16.6041 36.0212 14.9876 32.4857 15.3388 28.9065L16.0714 21.4354C19.1624 20.2056 21.7385 16.9146 23.0415 14.9866C24.6065 16.8301 27.8572 19.8128 32.5132 19.8122C32.7382 19.8122 32.9677 19.8052 33.1993 19.7906C36.6348 19.5765 39.2153 20.5432 40.8701 22.6637C43.7171 26.3123 43.4309 32.745 41.9499 37.2991ZM13.9505 10.2148C14.8743 8.44587 16.2683 7.58043 18.2121 7.56951C19.778 7.55694 21.0953 8.13471 21.105 8.13928C21.4575 8.29733 21.8673 8.26813 22.193 8.06171C22.5188 7.85541 22.7155 7.50019 22.7155 7.11882C22.7155 3.43844 29.9111 2.35946 30.3604 2.29662C36.5062 1.86155 42.5595 4.02902 45.4327 7.69633C50.7588 14.4924 51.8635 21.4637 48.7166 28.4164C47.6489 30.7752 46.2469 32.7424 45.0191 34.1992C45.2565 32.6865 45.3574 31.1533 45.31 29.6784C45.2004 26.2639 44.2893 23.366 42.6754 21.2978C40.5303 18.549 37.2947 17.2892 33.0555 17.5533C27.4319 17.902 23.9621 12.4608 23.929 12.4077C23.7179 12.0668 23.3386 11.8617 22.9331 11.8706C22.5277 11.8789 22.1572 12.0992 21.9606 12.4483C21.9267 12.5084 18.5341 18.4718 14.7008 19.5316C14.2972 19.6431 13.9944 19.9627 13.9011 20.3573C13.6359 20.3852 13.3775 20.4357 13.1273 20.5057C11.9396 17.0834 12.7645 12.4863 13.9505 10.2148Z" fill="black"/>
<path d="M23.4852 25.19C22.8564 25.19 22.3467 25.692 22.3467 26.3113V28.1046C22.3467 28.7239 22.8564 29.2259 23.4852 29.2259C24.114 29.2259 24.6237 28.7239 24.6237 28.1046V26.3111C24.6237 25.692 24.114 25.19 23.4852 25.19Z" fill="black"/>
<path d="M33.5924 22.7525C33.1478 23.1904 33.1478 23.9004 33.5924 24.3382C34.037 24.776 34.7579 24.776 35.2024 24.3382C36.1938 23.3619 37.8068 23.3619 38.7983 24.3382C39.0205 24.557 39.312 24.6666 39.6033 24.6666C39.8946 24.6666 40.1861 24.5572 40.4083 24.3382C40.8529 23.9003 40.8529 23.1903 40.4083 22.7525C38.5292 20.9019 35.4716 20.9019 33.5924 22.7525Z" fill="black"/>
<path d="M26.893 22.7525C25.014 20.9016 21.9562 20.9019 20.0771 22.7525C19.6325 23.1904 19.6325 23.9004 20.0771 24.3381C20.5217 24.776 21.2427 24.776 21.6871 24.3381C22.6787 23.3619 24.2917 23.3619 25.283 24.3381C25.5052 24.557 25.7967 24.6666 26.088 24.6666C26.3794 24.6666 26.6708 24.5571 26.893 24.3381C27.3376 23.9004 27.3376 23.1904 26.893 22.7525Z" fill="black"/>
<path d="M37.0003 25.19C36.3715 25.19 35.8618 25.692 35.8618 26.3113V28.1046C35.8618 28.7239 36.3715 29.2259 37.0003 29.2259C37.6291 29.2259 38.1388 28.7239 38.1388 28.1046V26.3111C38.1388 25.692 37.6291 25.19 37.0003 25.19Z" fill="black"/>
<path d="M32.445 34.6035C31.2306 35.7995 29.2545 35.7995 28.0402 34.6035C27.5956 34.1656 26.8746 34.1656 26.4301 34.6035C25.9855 35.0413 25.9855 35.7514 26.4301 36.1891C27.4812 37.2243 28.862 37.742 30.2425 37.742C31.6231 37.742 33.0039 37.2244 34.055 36.1891C34.4996 35.7513 34.4996 35.0412 34.055 34.6035C33.6106 34.1656 32.8896 34.1656 32.445 34.6035Z" fill="black"/>
<path d="M29.0522 31.6399H31.4327C32.0615 31.6399 32.5712 31.1379 32.5712 30.5187C32.5712 29.8994 32.0615 29.3974 31.4327 29.3974H31.3809V27.0801C31.3809 26.4608 30.8712 25.9589 30.2424 25.9589C29.6136 25.9589 29.1039 26.4608 29.1039 27.0801V29.3974H29.0521C28.4233 29.3974 27.9136 29.8994 27.9136 30.5187C27.9137 31.1379 28.4234 31.6399 29.0522 31.6399Z" fill="black"/>
<path d="M55.1589 51.5984H53.9467V45.3275C53.9467 43.8686 52.7416 42.6817 51.2602 42.6817H49.9985C48.5171 42.6817 47.3119 43.8686 47.3119 45.3275V51.5984H46.0998C45.471 51.5984 44.9613 52.1004 44.9613 52.7197V63.8789C44.9613 64.4982 45.471 65.0001 46.0998 65.0001H55.1589C55.7877 65.0001 56.2974 64.4982 56.2974 63.8789V58.9683C56.2974 58.349 55.7877 57.8471 55.1589 57.8471C54.5301 57.8471 54.0204 58.349 54.0204 58.9683V62.7576H47.2383V53.8409H48.4504H52.8081H54.0202V55.2308C54.0202 55.8501 54.5299 56.3521 55.1587 56.3521C55.7875 56.3521 56.2972 55.8501 56.2972 55.2308V52.7197C56.2974 52.1004 55.7875 51.5984 55.1589 51.5984ZM49.5891 51.5984V45.3275C49.5891 45.1051 49.7727 44.9242 49.9986 44.9242H51.2603C51.4862 44.9242 51.6699 45.1051 51.6699 45.3275V51.5984H49.5891Z" fill="black"/>
<path d="M10.4397 54.857H5.20278V44.5415H12.7169C13.3457 44.5415 13.8554 44.0396 13.8554 43.4203C13.8554 42.801 13.3457 42.299 12.7169 42.299H12.2817V37.9985C12.2817 37.4232 11.8415 36.9496 11.2748 36.8853V32.5768C11.2748 32.266 11.1438 31.9692 10.9132 31.757L7.42178 28.5477C7.09011 28.2428 6.60696 28.1611 6.19124 28.3389C5.77552 28.5168 5.50649 28.9209 5.50649 29.3674V36.8855C4.93981 36.9497 4.4996 37.4234 4.4996 37.9986V42.2991H4.06441C3.4356 42.2991 2.9259 42.8011 2.9259 43.4204V55.9783C2.9259 56.5976 3.4356 57.0995 4.06441 57.0995H10.44C11.0688 57.0995 11.5785 56.5976 11.5785 55.9783C11.5785 55.359 11.0686 54.857 10.4397 54.857ZM7.78337 31.9477L8.9978 33.064V36.8773H7.78337V31.9477ZM6.77661 39.1198H10.0048V42.2991H6.77661V39.1198Z" fill="black"/>
<path d="M59.9263 8.03275C60.2176 8.03275 60.5091 7.92331 60.7313 7.70432L62.7406 5.72549C63.1852 5.28763 63.1852 4.57758 62.7406 4.13997C62.296 3.70198 61.575 3.70211 61.1307 4.13997L59.1214 6.11879C58.6768 6.55666 58.6768 7.26671 59.1214 7.70432C59.3435 7.92344 59.635 8.03275 59.9263 8.03275Z" fill="black"/>
<path d="M55.1431 10.0366L53.1339 12.0154C52.6893 12.4533 52.6893 13.1633 53.1339 13.6011C53.3561 13.8201 53.6476 13.9295 53.9389 13.9295C54.2302 13.9295 54.5217 13.8201 54.7439 13.6011L56.7532 11.6223C57.1978 11.1844 57.1978 10.4743 56.7532 10.0366C56.3086 9.59874 55.5876 9.59887 55.1431 10.0366Z" fill="black"/>
<path d="M60.7315 10.0366C60.2869 9.59873 59.5659 9.59873 59.1215 10.0366C58.6769 10.4745 58.6769 11.1842 59.1215 11.6222L61.1308 13.6011C61.353 13.8201 61.6445 13.9295 61.9358 13.9295C62.2272 13.9295 62.5186 13.8201 62.7409 13.6011C63.1854 13.1632 63.1854 12.4534 62.7409 12.0154L60.7315 10.0366Z" fill="black"/>
<path d="M54.7439 4.13985C54.2994 3.70186 53.5786 3.70198 53.134 4.13985C52.6894 4.57771 52.6894 5.28751 53.134 5.72537L55.1433 7.7042C55.3655 7.92319 55.657 8.03262 55.9483 8.03262C56.2396 8.03262 56.5311 7.92319 56.7533 7.7042C57.1979 7.26633 57.1979 6.55654 56.7533 6.11867L54.7439 4.13985Z" fill="black"/>
<path d="M34.2185 56.0829C34.8472 56.0829 35.357 55.5809 35.357 54.9616C35.357 54.3424 34.8472 53.8404 34.2185 53.8404C33.5897 53.8404 33.08 54.3424 33.08 54.9616C33.08 55.5809 33.5897 56.0829 34.2185 56.0829Z" fill="black"/>
</g>
<defs>
<clipPath id="clip0_22_2">
<rect width="66" height="65" fill="white"/>
</clipPath>
</defs>
</svg>
