<svg width="16" height="16" viewBox="0 0 16 16" fill="none" xmlns="http://www.w3.org/2000/svg">
<path d="M9.90017 13.749C10.083 13.9107 10.3186 13.9999 10.5627 13.9999C10.8067 13.9999 11.0424 13.9107 11.2252 13.749C11.3852 13.609 11.4833 13.4112 11.4979 13.1991C11.5126 12.9869 11.4425 12.7776 11.3032 12.617L11.2252 12.537L6.26517 7.99997L11.2252 3.46197C11.3846 3.32202 11.4823 3.12471 11.4969 2.91304C11.5116 2.70137 11.4419 2.4925 11.3032 2.33197L11.2252 2.25197C11.0569 2.10316 10.8435 2.0151 10.6193 2.00187C10.395 1.98863 10.1728 2.05099 9.98817 2.17897L9.90017 2.24897L4.27417 7.39397C4.1147 7.53392 4.01701 7.73123 4.0024 7.9429C3.98779 8.15457 4.05744 8.36343 4.19617 8.52397L4.27417 8.60597L9.90017 13.75V13.749Z" fill="#5D1735"/>
</svg>
