<svg width="8" height="12" viewBox="0 0 8 12" fill="none" xmlns="http://www.w3.org/2000/svg">
<g clip-path="url(#clip0_47_334)">
<path d="M5.90017 11.749C6.08292 11.9104 6.31834 11.9995 6.56217 11.9995C6.806 11.9995 7.04142 11.9104 7.22417 11.749C7.38424 11.609 7.48231 11.4113 7.49693 11.1991C7.51155 10.987 7.44152 10.7777 7.30217 10.617L7.22417 10.537L2.26417 6.00002L7.22417 1.46302C7.38394 1.32304 7.48182 1.12552 7.49644 0.913606C7.51105 0.701693 7.44121 0.492607 7.30217 0.332019L7.22417 0.252019C7.05576 0.103364 6.84236 0.0154824 6.6181 0.00242955C6.39385 -0.0106233 6.17169 0.0519069 5.98717 0.180019L5.90017 0.250019L0.274169 5.39402C0.114697 5.53397 0.0170092 5.73128 0.00239841 5.94295C-0.0122124 6.15462 0.0574384 6.36349 0.196169 6.52402L0.274169 6.60602L5.90017 11.75V11.749Z" fill="#5D1735"/>
</g>
<defs>
<clipPath id="clip0_47_334">
<rect width="8" height="12" fill="white"/>
</clipPath>
</defs>
</svg>
