<svg width="8" height="12" viewBox="0 0 8 12" fill="none" xmlns="http://www.w3.org/2000/svg">
<g clip-path="url(#clip0_47_284)">
<path d="M2.10013 0.250984C1.91738 0.0895716 1.68196 0.000488281 1.43813 0.000488281C1.1943 0.000488281 0.958879 0.0895716 0.776131 0.250984C0.616064 0.390995 0.517987 0.58872 0.503368 0.800877C0.48875 1.01303 0.55878 1.22234 0.698131 1.38298L0.776131 1.46298L5.73613 5.99998L0.776131 10.537C0.616361 10.677 0.518479 10.8745 0.503864 11.0864C0.48925 11.2983 0.55909 11.5074 0.698131 11.668L0.776131 11.748C0.944461 11.8968 1.15788 11.9848 1.38218 11.9978C1.60648 12.0109 1.82867 11.9483 2.01313 11.82L2.10113 11.75L7.72613 6.60598C7.8856 6.46603 7.98329 6.26872 7.9979 6.05705C8.01251 5.84538 7.94286 5.63652 7.80413 5.47598L7.72613 5.39398L2.10013 0.250984Z" fill="#5D1735"/>
</g>
<defs>
<clipPath id="clip0_47_284">
<rect width="8" height="12" fill="white"/>
</clipPath>
</defs>
</svg>
