<svg width="16" height="16" viewBox="0 0 16 16" fill="none" xmlns="http://www.w3.org/2000/svg">
<path d="M13.7488 6.10003C13.9105 5.91722 13.9998 5.68159 13.9998 5.43753C13.9998 5.19348 13.9105 4.95785 13.7488 4.77503C13.6088 4.61497 13.4111 4.51689 13.199 4.50227C12.9868 4.48765 12.7775 4.55768 12.6168 4.69703L12.5368 4.77503L7.99985 9.73503L3.46185 4.77503C3.3219 4.61556 3.12458 4.51787 2.91291 4.50326C2.70124 4.48865 2.49238 4.5583 2.33185 4.69703L2.25185 4.77503C2.10304 4.94333 2.01498 5.15667 2.00174 5.38093C1.98851 5.60518 2.05087 5.8274 2.17885 6.01203L2.24885 6.10003L7.39385 11.726C7.5338 11.8855 7.73111 11.9832 7.94278 11.9978C8.15445 12.0124 8.36331 11.9428 8.52385 11.804L8.60585 11.726L13.7498 6.10003H13.7488Z" fill="white"/>
</svg>
