<svg width="24" height="24" viewBox="0 0 24 24" fill="none" xmlns="http://www.w3.org/2000/svg">
<path fill-rule="evenodd" clip-rule="evenodd" d="M4.27285 12.0001C5.91785 14.3801 8.76085 15.9601 11.9999 15.9601C15.2389 15.9601 18.0799 14.3801 19.7269 12.0001C18.0799 9.62007 15.2389 8.04007 11.9999 8.04007C8.76085 8.04007 5.91785 9.62007 4.27285 12.0001ZM3.53785 11.8041C5.29385 9.10807 8.42985 7.32007 11.9999 7.32007C15.5699 7.32007 18.7059 9.10807 20.4619 11.8031C20.4999 11.8615 20.5202 11.9298 20.5202 11.9996C20.5202 12.0693 20.4999 12.1376 20.4619 12.1961C18.7059 14.8931 15.5689 16.6801 11.9999 16.6801C8.42985 16.6801 5.29385 14.8921 3.53785 12.1971C3.49977 12.1386 3.47949 12.0703 3.47949 12.0006C3.47949 11.9308 3.49977 11.8625 3.53785 11.8041Z" fill="#5D1735"/>
<path fill-rule="evenodd" clip-rule="evenodd" d="M11.9998 9.47992C11.3313 9.47992 10.6902 9.74547 10.2175 10.2182C9.74482 10.6908 9.47927 11.3319 9.47927 12.0004C9.47927 12.6689 9.74482 13.31 10.2175 13.7827C10.6902 14.2554 11.3313 14.5209 11.9998 14.5209C12.6682 14.5209 13.3093 14.2554 13.782 13.7827C14.2547 13.31 14.5203 12.6689 14.5203 12.0004C14.5203 11.3319 14.2547 10.6908 13.782 10.2182C13.3093 9.74547 12.6682 9.47992 11.9998 9.47992ZM8.75977 11.9999C8.75977 11.1406 9.10112 10.3165 9.70874 9.7089C10.3164 9.10128 11.1405 8.75992 11.9998 8.75992C12.8591 8.75992 13.6832 9.10128 14.2908 9.7089C14.8984 10.3165 15.2398 11.1406 15.2398 11.9999C15.2398 12.8592 14.8984 13.6833 14.2908 14.2909C13.6832 14.8986 12.8591 15.2399 11.9998 15.2399C11.1405 15.2399 10.3164 14.8986 9.70874 14.2909C9.10112 13.6833 8.75977 12.8592 8.75977 11.9999ZM19.0798 5.27992C19.0798 5.18444 19.0418 5.09288 18.9743 5.02536C18.9068 4.95785 18.8152 4.91992 18.7198 4.91992H17.2798C17.1843 4.91992 17.0927 4.95785 17.0252 5.02536C16.9577 5.09288 16.9198 5.18444 16.9198 5.27992C16.9198 5.3754 16.9577 5.46697 17.0252 5.53448C17.0927 5.60199 17.1843 5.63992 17.2798 5.63992H18.3598V6.71992C18.3598 6.7672 18.3691 6.81401 18.3872 6.85769C18.4053 6.90137 18.4318 6.94105 18.4652 6.97448C18.4986 7.00791 18.5383 7.03443 18.582 7.05252C18.6257 7.07061 18.6725 7.07992 18.7198 7.07992C18.767 7.07992 18.8139 7.07061 18.8575 7.05252C18.9012 7.03443 18.9409 7.00791 18.9743 6.97448C19.0078 6.94105 19.0343 6.90137 19.0524 6.85769C19.0705 6.81401 19.0798 6.7672 19.0798 6.71992V5.27992Z" fill="#5D1735"/>
<path fill-rule="evenodd" clip-rule="evenodd" d="M18.7349 5.26506C18.7685 5.29851 18.7951 5.33825 18.8133 5.38201C18.8315 5.42577 18.8408 5.47268 18.8408 5.52006C18.8408 5.56744 18.8315 5.61436 18.8133 5.65812C18.7951 5.70188 18.7685 5.74162 18.7349 5.77506L17.2949 7.21506C17.2273 7.28269 17.1356 7.32069 17.0399 7.32069C16.9443 7.32069 16.8526 7.28269 16.7849 7.21506C16.7173 7.14743 16.6793 7.05571 16.6793 6.96006C16.6793 6.86442 16.7173 6.77269 16.7849 6.70506L18.2249 5.26506C18.2584 5.2315 18.2981 5.20487 18.3419 5.1867C18.3856 5.16853 18.4325 5.15918 18.4799 5.15918C18.5273 5.15918 18.5742 5.16853 18.618 5.1867C18.6617 5.20487 18.7015 5.2315 18.7349 5.26506ZM4.91992 18.7201C4.91992 18.9191 5.08092 19.0801 5.27992 19.0801H6.71992C6.7672 19.0801 6.81401 19.0708 6.85769 19.0527C6.90137 19.0346 6.94105 19.008 6.97448 18.9746C7.00791 18.9412 7.03443 18.9015 7.05252 18.8578C7.07061 18.8142 7.07992 18.7673 7.07992 18.7201C7.07992 18.6728 7.07061 18.626 7.05252 18.5823C7.03443 18.5386 7.00791 18.4989 6.97448 18.4655C6.94105 18.4321 6.90137 18.4056 6.85769 18.3875C6.81401 18.3694 6.7672 18.3601 6.71992 18.3601H5.63992V17.2801C5.63992 17.1846 5.60199 17.093 5.53448 17.0255C5.46697 16.958 5.3754 16.9201 5.27992 16.9201C5.18444 16.9201 5.09288 16.958 5.02536 17.0255C4.95785 17.093 4.91992 17.1846 4.91992 17.2801V18.7201Z" fill="#5D1735"/>
<path fill-rule="evenodd" clip-rule="evenodd" d="M5.26604 18.7349C5.23248 18.7015 5.20585 18.6618 5.18768 18.618C5.16951 18.5742 5.16016 18.5273 5.16016 18.4799C5.16016 18.4326 5.16951 18.3857 5.18768 18.3419C5.20585 18.2981 5.23248 18.2584 5.26604 18.2249L6.70604 16.7849C6.73935 16.7511 6.77905 16.7243 6.82282 16.706C6.8666 16.6877 6.91358 16.6782 6.96104 16.6782C7.0085 16.6782 7.05548 16.6877 7.09926 16.706C7.14303 16.7243 7.18273 16.7511 7.21604 16.7849C7.24954 16.8185 7.27609 16.8583 7.29417 16.902C7.31226 16.9458 7.32152 16.9928 7.32142 17.0402C7.32133 17.0875 7.31189 17.1344 7.29363 17.1782C7.27537 17.2219 7.24867 17.2616 7.21504 17.2949L5.77504 18.7349C5.70736 18.8025 5.61565 18.8404 5.52004 18.8404C5.42443 18.8404 5.33372 18.8025 5.26604 18.7349Z" fill="#5D1735"/>
</svg>
