<svg width="24" height="24" viewBox="0 0 24 24" fill="none" xmlns="http://www.w3.org/2000/svg">
<path fill-rule="evenodd" clip-rule="evenodd" d="M19.4183 4C20.6223 4 21.5999 4.9952 21.5999 6.2224V17.7776C21.5999 19.0048 20.6223 20 19.4183 20H4.5815C3.3775 20 2.3999 19.0048 2.3999 17.7776V6.2224C2.3999 4.9952 3.3775 4 4.5815 4H19.4183ZM7.2015 14.028L3.9991 17.616V18.3904H11.2119V18.38H20.0079V17.6376L15.0215 12.328L10.0471 16.5736L7.2015 14.028ZM18.8911 5.6H5.1087C4.4287 5.6 4.0487 5.9008 4.0047 6.5352L3.9999 6.6664V14.9176L6.1335 13.112C6.4743 12.8176 6.8087 12.6664 7.1999 12.6664C7.5431 12.6664 7.8791 12.788 8.1919 13.016L8.3255 13.12L9.8583 14.44L13.6167 11.2336C13.9999 10.908 14.4079 10.764 14.8663 10.764C15.2535 10.764 15.6327 10.8864 15.9679 11.1296L16.1087 11.2416L19.9999 14.7184V6.6664C19.9999 5.9872 19.6559 5.6432 19.0223 5.604L18.8911 5.6ZM10.1791 9.3336C10.1791 8.3648 9.3903 7.5552 8.4367 7.5552C7.4767 7.5552 6.6879 8.3648 6.6879 9.3336C6.6879 10.3176 7.4767 11.1112 8.4367 11.1112C9.3903 11.1112 10.1783 10.3176 10.1783 9.3336H10.1791Z" fill="#5D1735"/>
</svg>
