<svg width="24" height="24" viewBox="0 0 24 24" fill="none" xmlns="http://www.w3.org/2000/svg">
<path fill-rule="evenodd" clip-rule="evenodd" d="M5.91881 2.44194C5.9339 2.38533 5.96 2.33225 5.99561 2.28574C6.03122 2.23922 6.07564 2.20017 6.12635 2.17083C6.17705 2.14148 6.23304 2.12241 6.29111 2.11471C6.34919 2.10701 6.40821 2.11082 6.46481 2.12594L8.17481 2.58394C8.28912 2.61457 8.38657 2.68936 8.44574 2.79184C8.50491 2.89433 8.52094 3.01613 8.49031 3.13044C8.45968 3.24474 8.38489 3.3422 8.2824 3.40137C8.17991 3.46054 8.05812 3.47657 7.94381 3.44594L6.66581 3.10294L6.32281 4.38094C6.30977 4.43967 6.28498 4.49517 6.24993 4.54408C6.21489 4.59298 6.1703 4.63429 6.11887 4.66552C6.06744 4.69675 6.01022 4.71724 5.95066 4.72578C5.8911 4.73431 5.83043 4.73071 5.7723 4.71518C5.71417 4.69965 5.65978 4.67252 5.61241 4.63542C5.56504 4.59832 5.52567 4.55202 5.49666 4.49931C5.46765 4.44659 5.44961 4.38855 5.44362 4.32868C5.43763 4.26881 5.44382 4.20835 5.46181 4.15094L5.91981 2.44094L5.91881 2.44194Z" fill="#5D1735"/>
<path fill-rule="evenodd" clip-rule="evenodd" d="M6.3768 2.60409C6.42754 2.57467 6.48358 2.55556 6.54172 2.54783C6.59986 2.54011 6.65895 2.54392 6.71561 2.55906C6.77227 2.5742 6.82539 2.60037 6.87192 2.63607C6.91846 2.67176 6.95749 2.71628 6.9868 2.76709L8.3618 5.15109C8.39327 5.20186 8.41422 5.25843 8.42341 5.31745C8.43259 5.37648 8.42983 5.43674 8.41528 5.49468C8.40074 5.55261 8.3747 5.60703 8.33872 5.65471C8.30273 5.70239 8.25754 5.74236 8.20582 5.77224C8.1541 5.80212 8.0969 5.82131 8.03762 5.82866C7.97834 5.83601 7.91819 5.83139 7.86074 5.81505C7.80328 5.79871 7.74969 5.771 7.70315 5.73356C7.65661 5.69612 7.61806 5.64971 7.5898 5.59709L6.2148 3.21309C6.18535 3.16241 6.16617 3.10642 6.15837 3.04832C6.15057 2.99022 6.1543 2.93116 6.16935 2.8745C6.1844 2.81785 6.21046 2.76472 6.24606 2.71815C6.28165 2.67157 6.32608 2.63248 6.3768 2.60309V2.60409ZM5.9198 21.5581C5.93489 21.6147 5.96099 21.6678 5.9966 21.7143C6.03221 21.7608 6.07663 21.7999 6.12734 21.8292C6.17804 21.8585 6.23403 21.8776 6.2921 21.8853C6.35018 21.893 6.4092 21.8892 6.4658 21.8741L8.1758 21.4161C8.23691 21.4054 8.29511 21.382 8.34671 21.3476C8.39831 21.3132 8.44218 21.2683 8.47552 21.216C8.50886 21.1637 8.53094 21.105 8.54037 21.0437C8.54979 20.9824 8.54634 20.9198 8.53025 20.8599C8.51416 20.7999 8.48577 20.744 8.44689 20.6957C8.40801 20.6473 8.35949 20.6076 8.30442 20.579C8.24935 20.5505 8.18894 20.5337 8.12703 20.5297C8.06511 20.5258 8.00305 20.5347 7.9448 20.5561L6.6668 20.8971L6.3238 19.6191C6.30978 19.5612 6.28433 19.5068 6.24894 19.4589C6.21354 19.411 6.16892 19.3707 6.11771 19.3404C6.0665 19.3101 6.00973 19.2903 5.95075 19.2822C5.89177 19.2741 5.83178 19.278 5.7743 19.2934C5.71682 19.3089 5.66302 19.3358 5.61608 19.3724C5.56914 19.409 5.53 19.4546 5.50097 19.5066C5.47194 19.5586 5.4536 19.6158 5.44705 19.675C5.44049 19.7341 5.44585 19.794 5.4628 19.8511L5.9208 21.5601L5.9198 21.5581Z" fill="#5D1735"/>
<path fill-rule="evenodd" clip-rule="evenodd" d="M6.37712 21.3979C6.59012 21.5199 6.86312 21.4479 6.98712 21.2329L8.36212 18.8499C8.39458 18.7991 8.4164 18.7422 8.42627 18.6828C8.43613 18.6233 8.43384 18.5624 8.41953 18.5039C8.40522 18.4453 8.37919 18.3903 8.343 18.3421C8.30682 18.2938 8.26124 18.2535 8.20901 18.2234C8.15679 18.1933 8.099 18.1741 8.03914 18.1669C7.97928 18.1598 7.9186 18.1648 7.86075 18.1818C7.80291 18.1988 7.7491 18.2273 7.70259 18.2656C7.65607 18.304 7.61781 18.3513 7.59012 18.4049L6.21512 20.7869C6.18567 20.8376 6.16649 20.8936 6.1587 20.9517C6.1509 21.0098 6.15463 21.0688 6.16967 21.1255C6.18472 21.1821 6.21079 21.2353 6.24638 21.2818C6.28198 21.3284 6.3264 21.3675 6.37712 21.3969V21.3979ZM8.16212 8.54989L8.06612 8.58989L8.02612 8.60689L7.93412 8.64989L7.84412 8.69489L7.75312 8.74189L7.66312 8.79189L7.57312 8.84289L7.47912 8.89889C7.4651 8.90718 7.4511 8.91551 7.43712 8.92389L7.34412 8.98389L7.25412 9.04289L7.16212 9.10489L7.02412 9.19989L6.93212 9.26589L6.74612 9.40189L6.58312 9.52589L6.41812 9.65189L5.82812 10.1099L5.65512 10.2419L5.47912 10.3739L5.30312 10.5029C4.79612 10.8679 4.24612 11.2159 3.63312 11.4559C4.09312 11.7399 4.50812 12.0329 4.89312 12.3289L4.89512 12.3309L5.07312 12.4689L5.16312 12.5399V12.5409L5.33712 12.6809L5.50712 12.8209L5.67512 12.9599L5.91912 13.1649L6.38912 13.5679L6.69512 13.8279L6.92212 14.0179L7.07212 14.1399L7.22212 14.2599L7.37212 14.3769L7.52412 14.4919C8.66412 15.3389 9.91612 15.9419 12.0011 15.9429L12.1381 15.9419H12.1411C14.1411 15.9159 15.3651 15.3199 16.4801 14.4919L16.4811 14.4899L16.6321 14.3759L16.7821 14.2609L16.9321 14.1399L17.0061 14.0799L17.1571 13.9559L17.3841 13.7659L17.3861 13.7619L18.0061 13.2339L18.0081 13.2319L18.3331 12.9569L18.5001 12.8189L18.6701 12.6789L18.8401 12.5429L18.8431 12.5399L18.9311 12.4699L18.9331 12.4679L19.1111 12.3299C19.4951 12.0339 19.9111 11.7399 20.3711 11.4559C19.7591 11.2159 19.2071 10.8679 18.7011 10.5029L18.6981 10.4999L18.5211 10.3699L18.3471 10.2399L18.1741 10.1079L17.5871 9.65189L17.5861 9.65089L17.4241 9.52689L17.4201 9.52489L17.2591 9.40289L17.0731 9.26589L16.9811 9.19989L16.8431 9.10489L16.7531 9.04289L16.6131 8.95289L16.5231 8.89789L16.4321 8.84289L16.3421 8.79089L16.2511 8.74089L16.1611 8.69489L16.0711 8.64989L15.9781 8.60689C15.9648 8.60118 15.9515 8.59551 15.9381 8.58989L15.8431 8.54989C15.3692 8.34653 14.8447 8.29213 14.3391 8.39389C13.7951 8.50489 13.1651 8.81189 12.4191 9.44289L12.2931 9.55089C12.2122 9.62057 12.1089 9.6589 12.0021 9.6589C11.8953 9.6589 11.7921 9.62057 11.7111 9.55089L11.5861 9.44289C10.8391 8.81089 10.2101 8.50489 9.66612 8.39289C9.16047 8.29144 8.63592 8.3462 8.16212 8.54989ZM12.0021 8.62989C11.2391 8.01589 10.5281 7.65989 9.84512 7.51989C9.16694 7.38288 8.46319 7.45399 7.82612 7.72389L7.72012 7.76889L7.71312 7.77089L7.65912 7.79589L7.55412 7.84389L7.54412 7.84889L7.44412 7.89889L7.43612 7.90189L7.33612 7.95289L7.32812 7.95789L7.23012 8.01089L7.22312 8.01589L7.12312 8.07189L7.02112 8.13389L7.01712 8.13589L6.96512 8.16889L6.86612 8.22989L6.76412 8.29889L6.66212 8.36689L6.51312 8.46889L6.41212 8.54089L6.21612 8.68489L6.04412 8.81489L5.87412 8.94489L5.28412 9.40289L5.11812 9.52889L4.95112 9.65589L4.78112 9.77989C4.01812 10.3299 3.25812 10.7569 2.39612 10.8599C2.30028 10.8705 2.21045 10.9118 2.14008 10.9777C2.06972 11.0437 2.02261 11.1306 2.00583 11.2256C1.98905 11.3205 2.00349 11.4184 2.04699 11.5044C2.09049 11.5905 2.16071 11.6601 2.24712 11.7029C2.98912 12.0799 3.69312 12.5259 4.35012 13.0369L4.52312 13.1699L4.60612 13.2369L4.77512 13.3719L4.93912 13.5069L5.10012 13.6419L5.34012 13.8419L5.34212 13.8449L5.81012 14.2469L6.12012 14.5089L6.35212 14.7029L6.51012 14.8329L6.66712 14.9569L6.66912 14.9599L6.83012 15.0839L6.98812 15.2039L6.99112 15.2059C8.25812 16.1489 9.69512 16.8349 12.0011 16.8349H12.0061L12.1461 16.8329H12.1501C14.3731 16.8049 15.7741 16.1279 17.0141 15.2059L17.1721 15.0859L17.1751 15.0839L17.3351 14.9599L17.3371 14.9569L17.4921 14.8349V14.8329L17.5721 14.7689L17.7271 14.6419L17.9601 14.4459L18.5841 13.9129L18.5851 13.9109L18.9021 13.6429L18.9061 13.6409L19.0641 13.5079L19.0671 13.5059L19.2301 13.3719L19.3981 13.2369L19.4821 13.1719L19.6551 13.0369C20.3121 12.5259 21.0151 12.0789 21.7571 11.7019C21.8422 11.6585 21.9111 11.589 21.9537 11.5035C21.9963 11.4181 22.0104 11.3212 21.9938 11.2271C21.9772 11.1331 21.9309 11.0469 21.8617 10.9811C21.7924 10.9154 21.7039 10.8736 21.6091 10.8619C20.7461 10.7569 19.9871 10.3299 19.2241 9.77989H19.2231L19.0551 9.65589L18.8851 9.52889L18.7201 9.40289L18.7181 9.40089L18.1321 8.94589L17.9631 8.81589L17.7931 8.68889L17.5971 8.54489L17.4971 8.47289L17.3481 8.36989L17.2461 8.30089L17.0941 8.20289L17.0871 8.19789L16.9901 8.13789L16.8861 8.07689L16.7821 8.01489L16.7751 8.01089L16.6751 7.95789L16.6681 7.95289L16.5691 7.90289L16.5601 7.89689L16.4611 7.84689L16.4511 7.84389L16.3511 7.79689L16.3461 7.79589C16.3275 7.78743 16.3088 7.7791 16.2901 7.77089L16.1841 7.72589L16.1791 7.72389C15.542 7.45432 14.8382 7.38356 14.1601 7.52089C13.4761 7.66089 12.7651 8.01489 12.0021 8.62989Z" fill="#5D1735"/>
<path fill-rule="evenodd" clip-rule="evenodd" d="M2.35693 11.3051C2.35693 11.1868 2.40392 11.0733 2.48756 10.9897C2.57121 10.906 2.68465 10.8591 2.80293 10.8591C5.32193 10.8591 6.89293 11.1051 8.20993 11.3511L8.68193 11.4401C9.77893 11.6501 10.7149 11.8271 12.0019 11.8271C12.1202 11.8271 12.2337 11.874 12.3173 11.9577C12.4009 12.0413 12.4479 12.1548 12.4479 12.2731C12.4479 12.3913 12.4009 12.5048 12.3173 12.5884C12.2337 12.6721 12.1202 12.7191 12.0019 12.7191C10.6269 12.7191 9.60893 12.5251 8.51193 12.3151L8.04593 12.2271C6.76593 11.9881 5.25293 11.7511 2.80293 11.7511C2.68465 11.7511 2.57121 11.7041 2.48756 11.6204C2.40392 11.5368 2.35693 11.4233 2.35693 11.3051ZM8.75993 9.01405C9.22993 8.91705 9.65893 9.02605 10.1099 9.23505C10.2136 9.28715 10.2929 9.37762 10.331 9.48724C10.3691 9.59685 10.3629 9.717 10.3139 9.82216C10.2648 9.92732 10.1767 10.0092 10.0682 10.0505C9.95975 10.0917 9.83947 10.089 9.73293 10.0431C9.37393 9.87705 9.14893 9.84505 8.93793 9.88705C8.70393 9.93405 8.41693 10.0871 7.96193 10.4491C7.86937 10.5228 7.75131 10.5567 7.63373 10.5434C7.51614 10.5301 7.40866 10.4706 7.33493 10.3781C7.2612 10.2855 7.22726 10.1674 7.24058 10.0498C7.25389 9.93226 7.31337 9.82479 7.40593 9.75105C7.88593 9.37105 8.30993 9.10405 8.75993 9.01305V9.01405ZM16.6259 12.9621C16.699 13.0546 16.7326 13.1722 16.7195 13.2894C16.7064 13.4066 16.6476 13.5139 16.5559 13.5881L16.3919 13.7201C15.7319 14.2481 15.1859 14.6861 14.1429 14.9981C14.0296 15.0319 13.9074 15.0193 13.8033 14.963C13.6992 14.9067 13.6217 14.8114 13.5879 14.6981C13.5541 14.5847 13.5667 14.4625 13.623 14.3584C13.6792 14.2543 13.7746 14.1769 13.8879 14.1431C14.7609 13.8831 15.1859 13.5431 15.8449 13.0161L16.0009 12.8921C16.0932 12.8188 16.2108 12.785 16.3279 12.7981C16.445 12.8113 16.5521 12.8702 16.6259 12.9621Z" fill="#5D1735"/>
<path fill-rule="evenodd" clip-rule="evenodd" d="M15.4922 12.3149C14.3942 12.5249 13.3782 12.7189 12.0022 12.7189C11.8839 12.7189 11.7704 12.6719 11.6868 12.5883C11.6031 12.5047 11.5562 12.3912 11.5562 12.2729C11.5562 12.1546 11.6031 12.0412 11.6868 11.9576C11.7704 11.8739 11.8839 11.8269 12.0022 11.8269C13.2902 11.8269 14.2252 11.6489 15.3222 11.4399L15.7942 11.3499C17.1132 11.1049 18.6822 10.8589 21.2022 10.8589C21.3204 10.8589 21.4339 10.9059 21.5175 10.9896C21.6012 11.0732 21.6482 11.1866 21.6482 11.3049C21.6482 11.4232 21.6012 11.5367 21.5175 11.6203C21.4339 11.7039 21.3204 11.7509 21.2022 11.7509C18.7512 11.7509 17.2392 11.9879 15.9572 12.2269L15.4912 12.3139L15.4922 12.3149ZM18.5952 2.44194C18.5801 2.38533 18.554 2.33225 18.5184 2.28574C18.4827 2.23922 18.4383 2.20017 18.3876 2.17083C18.3369 2.14148 18.2809 2.12241 18.2228 2.11471C18.1648 2.10701 18.1058 2.11082 18.0492 2.12594L16.3392 2.58394C16.2248 2.61457 16.1274 2.68936 16.0682 2.79184C16.0091 2.89433 15.993 3.01613 16.0237 3.13044C16.0543 3.24474 16.1291 3.3422 16.2316 3.40137C16.334 3.46054 16.4558 3.47657 16.5702 3.44594L17.8482 3.10294L18.1912 4.38094C18.2016 4.44221 18.2248 4.50062 18.2591 4.55244C18.2934 4.60426 18.3382 4.64835 18.3905 4.6819C18.4429 4.71545 18.5016 4.73771 18.563 4.74726C18.6245 4.75682 18.6872 4.75346 18.7472 4.7374C18.8073 4.72134 18.8633 4.69293 18.9118 4.65399C18.9602 4.61505 19 4.56643 19.0286 4.51124C19.0572 4.45605 19.074 4.3955 19.0779 4.33346C19.0818 4.27142 19.0727 4.20926 19.0512 4.15094L18.5942 2.44094L18.5952 2.44194Z" fill="#5D1735"/>
<path fill-rule="evenodd" clip-rule="evenodd" d="M18.1369 2.60397C18.0862 2.57442 18.0301 2.5552 17.972 2.5474C17.9138 2.53961 17.8547 2.54339 17.798 2.55854C17.7413 2.57369 17.6882 2.59991 17.6416 2.63568C17.5951 2.67145 17.5561 2.71607 17.5269 2.76697L16.1519 5.15097C16.1002 5.25269 16.0894 5.37038 16.1218 5.47981C16.1542 5.58925 16.2273 5.68209 16.3261 5.73924C16.4249 5.79639 16.5418 5.81349 16.6529 5.78702C16.7639 5.76056 16.8605 5.69254 16.9229 5.59697L18.2999 3.21297C18.359 3.11043 18.3751 2.98862 18.3445 2.87427C18.314 2.75991 18.2393 2.66234 18.1369 2.60297V2.60397ZM18.5949 21.558C18.5727 21.6435 18.5254 21.7205 18.4591 21.7789C18.3928 21.8374 18.3106 21.8746 18.2229 21.886C18.1647 21.8935 18.1056 21.8894 18.0489 21.874L16.3399 21.416C16.2786 21.4055 16.2202 21.3823 16.1684 21.348C16.1166 21.3137 16.0725 21.2689 16.0389 21.2166C16.0054 21.1643 15.9831 21.1055 15.9736 21.0441C15.964 20.9827 15.9674 20.9199 15.9834 20.8599C15.9995 20.7998 16.0279 20.7438 16.0668 20.6953C16.1058 20.6469 16.1544 20.6071 16.2096 20.5785C16.2648 20.5499 16.3253 20.5331 16.3874 20.5292C16.4494 20.5254 16.5116 20.5345 16.5699 20.556L17.8479 20.897L18.1909 19.619C18.2026 19.5587 18.2266 19.5015 18.2614 19.4509C18.2961 19.4003 18.341 19.3574 18.393 19.3249C18.4451 19.2924 18.5033 19.271 18.5641 19.2619C18.6248 19.2529 18.6867 19.2565 18.746 19.2725C18.8053 19.2885 18.8607 19.3165 18.9086 19.3548C18.9566 19.3931 18.9962 19.4409 19.0249 19.4951C19.0536 19.5494 19.0708 19.609 19.0754 19.6702C19.0801 19.7315 19.0721 19.793 19.0519 19.851L18.5939 21.56L18.5949 21.558Z" fill="#5D1735"/>
<path fill-rule="evenodd" clip-rule="evenodd" d="M18.1372 21.3979C18.0863 21.4272 18.0302 21.4462 17.972 21.4538C17.9138 21.4614 17.8546 21.4574 17.7979 21.4421C17.7413 21.4267 17.6882 21.4004 17.6417 21.3645C17.5953 21.3286 17.5563 21.2839 17.5272 21.2329L16.1522 18.8499C16.0974 18.7478 16.0844 18.6284 16.1161 18.5169C16.1478 18.4054 16.2217 18.3107 16.322 18.2527C16.4224 18.1947 16.5413 18.1781 16.6537 18.2063C16.7661 18.2345 16.8632 18.3054 16.9242 18.4039L18.2992 20.7869C18.3289 20.8375 18.3483 20.8935 18.3563 20.9517C18.3642 21.0098 18.3605 21.069 18.3455 21.1257C18.3304 21.1824 18.3042 21.2356 18.2685 21.2822C18.2327 21.3287 18.1881 21.3677 18.1372 21.3969V21.3979Z" fill="#5D1735"/>
</svg>
