<svg width="30" height="30" viewBox="0 0 30 30" fill="none" xmlns="http://www.w3.org/2000/svg">
<path fill-rule="evenodd" clip-rule="evenodd" d="M20.6221 9.518C20.6997 9.59565 20.7541 9.69341 20.7792 9.80029C20.8043 9.90717 20.7991 10.0189 20.7641 10.123L19.4761 13.923L21.8791 17.141C21.9444 17.229 21.9839 17.3336 21.9931 17.4428C22.0022 17.5521 21.9807 17.6618 21.9309 17.7595C21.8811 17.8571 21.8051 17.939 21.7113 17.9958C21.6175 18.0526 21.5097 18.0821 21.4001 18.081L17.3871 18.027L15.0711 21.303C15.0077 21.3921 14.9207 21.4618 14.8199 21.5043C14.719 21.5467 14.6084 21.5601 14.5003 21.5431C14.3922 21.526 14.2911 21.4792 14.2082 21.4078C14.1253 21.3364 14.064 21.2433 14.0311 21.139L12.8371 17.305L9.00309 16.112C8.89831 16.0792 8.80479 16.0177 8.73308 15.9346C8.66137 15.8514 8.61434 15.7499 8.59728 15.6414C8.58023 15.5329 8.59383 15.4219 8.63656 15.3207C8.67929 15.2196 8.74943 15.1324 8.83909 15.069L12.1131 12.754L12.0591 8.742C12.0571 8.63178 12.0861 8.52323 12.1429 8.42872C12.1996 8.33422 12.2818 8.25757 12.38 8.20752C12.4783 8.15747 12.5886 8.13604 12.6984 8.14568C12.8082 8.15531 12.9131 8.19562 13.0011 8.262L16.2171 10.665L20.0171 9.378C20.1209 9.34255 20.2327 9.33688 20.3396 9.36162C20.4465 9.38636 20.5444 9.44053 20.6221 9.518ZM19.2651 10.875L16.3021 11.878C16.2118 11.9085 16.1155 11.9166 16.0215 11.9016C15.9274 11.8866 15.8384 11.849 15.7621 11.792L13.2521 9.919L13.2931 13.047C13.2947 13.1427 13.2729 13.2373 13.2297 13.3227C13.1865 13.408 13.1231 13.4816 13.0451 13.537L10.4901 15.342L13.4811 16.273C13.5721 16.3011 13.6548 16.351 13.7223 16.4182C13.7897 16.4855 13.8397 16.5681 13.8681 16.659L14.8001 19.65L16.6051 17.096C16.6601 17.018 16.7333 16.9546 16.8183 16.9112C16.9033 16.8678 16.9976 16.8458 17.0931 16.847L20.2211 16.887L18.3481 14.379C18.2913 14.3026 18.2538 14.2135 18.239 14.1195C18.2242 14.0254 18.2325 13.9292 18.2631 13.839L19.2671 10.875H19.2651ZM10.5311 19.464C10.6412 19.5744 10.7031 19.724 10.7031 19.88C10.7031 20.036 10.6412 20.1856 10.5311 20.296L4.00009 26.827C3.88776 26.9273 3.74134 26.9809 3.5908 26.9767C3.44026 26.9726 3.29701 26.911 3.1904 26.8046C3.08378 26.6983 3.02188 26.5552 3.01736 26.4046C3.01284 26.2541 3.06605 26.1076 3.16609 25.995L9.69909 19.464C9.75373 19.409 9.81871 19.3654 9.89027 19.3356C9.96184 19.3059 10.0386 19.2906 10.1161 19.2906C10.1936 19.2906 10.2703 19.3059 10.3419 19.3356C10.4135 19.3654 10.4784 19.409 10.5331 19.464H10.5311ZM15.5511 4.177C15.5511 3.86484 15.6751 3.56547 15.8958 3.34474C16.1166 3.12401 16.4159 3 16.7281 3C17.0402 3 17.3396 3.12401 17.5604 3.34474C17.7811 3.56547 17.9051 3.86484 17.9051 4.177V4.255H17.9841C18.2962 4.255 18.5956 4.379 18.8164 4.59974C19.0371 4.82047 19.1611 5.11984 19.1611 5.432C19.1611 5.74416 19.0371 6.04353 18.8164 6.26426C18.5956 6.48499 18.2962 6.609 17.9841 6.609H17.9051V6.687C17.8962 6.99309 17.7683 7.28365 17.5486 7.497C17.329 7.71035 17.0348 7.8297 16.7286 7.8297C16.4224 7.8297 16.1282 7.71035 15.9085 7.497C15.6889 7.28365 15.561 6.99309 15.5521 6.687V6.61H15.4731C15.1609 6.61 14.8616 6.48599 14.6408 6.26526C14.4201 6.04453 14.2961 5.74516 14.2961 5.433C14.2961 5.12084 14.4201 4.82147 14.6408 4.60074C14.8616 4.38 15.1609 4.256 15.4731 4.256H15.5521V4.178L15.5511 4.177ZM16.7291 4.844C16.7291 4.9213 16.7138 4.99784 16.6842 5.06925C16.6546 5.14065 16.6112 5.20552 16.5565 5.26013C16.5018 5.31475 16.4369 5.35804 16.3654 5.38753C16.294 5.41702 16.2174 5.43213 16.1401 5.432C16.2174 5.43187 16.294 5.44698 16.3654 5.47647C16.4369 5.50596 16.5018 5.54925 16.5565 5.60387C16.6112 5.65848 16.6546 5.72335 16.6842 5.79475C16.7138 5.86616 16.7291 5.9427 16.7291 6.02C16.7294 5.86413 16.7914 5.71473 16.9016 5.60451C17.0118 5.4943 17.1612 5.43226 17.3171 5.432C17.1611 5.432 17.0116 5.37005 16.9013 5.25978C16.791 5.14951 16.7291 4.99995 16.7291 4.844ZM6.13709 9.669C6.13709 9.35684 6.26109 9.05747 6.48182 8.83674C6.70255 8.61601 7.00193 8.492 7.31409 8.492C7.62625 8.492 7.92562 8.61601 8.14635 8.83674C8.36708 9.05747 8.49109 9.35684 8.49109 9.669V9.747H8.56909C8.88125 9.747 9.18062 9.871 9.40135 10.0917C9.62208 10.3125 9.74609 10.6118 9.74609 10.924C9.74609 11.2362 9.62208 11.5355 9.40135 11.7563C9.18062 11.977 8.88125 12.101 8.56909 12.101H8.49109V12.179C8.49109 12.4912 8.36708 12.7905 8.14635 13.0113C7.92562 13.232 7.62625 13.356 7.31409 13.356C7.00193 13.356 6.70255 13.232 6.48182 13.0113C6.26109 12.7905 6.13709 12.4912 6.13709 12.179V12.101H6.06009C5.74793 12.101 5.44855 11.977 5.22782 11.7563C5.00709 11.5355 4.88309 11.2362 4.88309 10.924C4.88309 10.6118 5.00709 10.3125 5.22782 10.0917C5.44855 9.871 5.74793 9.747 6.06009 9.747H6.13809L6.13709 9.669ZM7.31409 10.335C7.31422 10.4123 7.29911 10.4889 7.26962 10.5603C7.24013 10.6318 7.19683 10.6967 7.14222 10.7514C7.08761 10.8061 7.02274 10.8495 6.95134 10.8791C6.87993 10.9088 6.80339 10.924 6.72609 10.924C6.88195 10.9243 7.03136 10.9863 7.14157 11.0965C7.25179 11.2067 7.31382 11.3561 7.31409 11.512C7.31409 11.4347 7.32933 11.3582 7.35894 11.2868C7.38855 11.2153 7.43196 11.1505 7.48666 11.0959C7.54137 11.0413 7.60631 10.998 7.67776 10.9685C7.74922 10.939 7.82579 10.9239 7.90309 10.924C7.8257 10.9241 7.74905 10.909 7.67753 10.8794C7.60601 10.8499 7.54103 10.8065 7.48631 10.7518C7.43159 10.6971 7.38821 10.6321 7.35865 10.5606C7.3291 10.489 7.31396 10.4124 7.31409 10.335ZM23.3971 12.28C23.3971 11.9678 23.5211 11.6685 23.7418 11.4477C23.9626 11.227 24.2619 11.103 24.5741 11.103C24.8862 11.103 25.1856 11.227 25.4064 11.4477C25.6271 11.6685 25.7511 11.9678 25.7511 12.28V12.359H25.8291C26.1412 12.359 26.4406 12.483 26.6614 12.7037C26.8821 12.9245 27.0061 13.2238 27.0061 13.536C27.0061 13.8482 26.8821 14.1475 26.6614 14.3683C26.4406 14.589 26.1412 14.713 25.8291 14.713H25.7511V14.791C25.7511 15.1032 25.6271 15.4025 25.4064 15.6233C25.1856 15.844 24.8862 15.968 24.5741 15.968C24.2619 15.968 23.9626 15.844 23.7418 15.6233C23.5211 15.4025 23.3971 15.1032 23.3971 14.791V14.712H23.3191C23.013 14.7031 22.7224 14.5752 22.5091 14.3555C22.2957 14.1359 22.1764 13.8417 22.1764 13.5355C22.1764 13.2293 22.2957 12.9351 22.5091 12.7155C22.7224 12.4958 23.013 12.3679 23.3191 12.359H23.3971V12.28ZM24.5741 12.947C24.5742 13.0243 24.5591 13.1009 24.5296 13.1723C24.5001 13.2438 24.4568 13.3087 24.4022 13.3634C24.3476 13.4181 24.2827 13.4615 24.2113 13.4911C24.1399 13.5208 24.0634 13.536 23.9861 13.536C24.142 13.536 24.2916 13.598 24.4019 13.7082C24.5121 13.8185 24.5741 13.9681 24.5741 14.124C24.5741 13.9681 24.636 13.8185 24.7463 13.7082C24.8566 13.598 25.0061 13.536 25.1621 13.536C25.0848 13.536 25.0082 13.5208 24.9368 13.4911C24.8654 13.4615 24.8006 13.4181 24.746 13.3634C24.6913 13.3087 24.648 13.2438 24.6186 13.1723C24.5891 13.1009 24.574 13.0243 24.5741 12.947ZM18.6901 21.695C18.7026 21.3912 18.8321 21.1041 19.0515 20.8936C19.2708 20.6831 19.5631 20.5655 19.8671 20.5655C20.1711 20.5655 20.4634 20.6831 20.6827 20.8936C20.9021 21.1041 21.0316 21.3912 21.0441 21.695V21.773H21.1221C21.4342 21.773 21.7336 21.897 21.9544 22.1177C22.1751 22.3385 22.2991 22.6378 22.2991 22.95C22.2991 23.2622 22.1751 23.5615 21.9544 23.7823C21.7336 24.003 21.4342 24.127 21.1221 24.127H21.0441V24.205C21.0441 24.5172 20.9201 24.8165 20.6994 25.0373C20.4786 25.258 20.1792 25.382 19.8671 25.382C19.5549 25.382 19.2556 25.258 19.0348 25.0373C18.8141 24.8165 18.6901 24.5172 18.6901 24.205V24.127H18.6121C18.2999 24.127 18.0006 24.003 17.7798 23.7823C17.5591 23.5615 17.4351 23.2622 17.4351 22.95C17.4351 22.6378 17.5591 22.3385 17.7798 22.1177C18.0006 21.897 18.2999 21.773 18.6121 21.773H18.6901V21.695ZM19.8671 22.362C19.8671 22.4393 19.8518 22.5158 19.8222 22.5872C19.7926 22.6587 19.7492 22.7235 19.6945 22.7781C19.6398 22.8327 19.5749 22.876 19.5034 22.9055C19.432 22.935 19.3554 22.9501 19.2781 22.95C19.3554 22.9499 19.432 22.965 19.5034 22.9945C19.5749 23.024 19.6398 23.0673 19.6945 23.1219C19.7492 23.1765 19.7926 23.2413 19.8222 23.3128C19.8518 23.3842 19.8671 23.4607 19.8671 23.538C19.8671 23.3821 19.929 23.2325 20.0393 23.1222C20.1496 23.0119 20.2991 22.95 20.4551 22.95C20.2991 22.95 20.1496 22.8881 20.0393 22.7778C19.929 22.6675 19.8671 22.5179 19.8671 22.362Z" fill="#5D1735"/>
</svg>
