<svg width="30" height="30" viewBox="0 0 30 30" fill="none" xmlns="http://www.w3.org/2000/svg">
<path fill-rule="evenodd" clip-rule="evenodd" d="M16.5811 17.2241C16.3491 16.6141 15.5191 16.5811 15.2241 17.1281L15.1801 17.2241L14.3061 19.5311C14.1478 19.9489 13.8348 20.2897 13.4321 20.4831L13.2951 20.5421L10.9891 21.4161C10.3791 21.6481 10.3451 22.4781 10.8921 22.7741L10.9891 22.8181L13.2951 23.6931C13.7151 23.8521 14.0551 24.1651 14.2471 24.5671L14.3071 24.7051L15.1811 27.0091C15.4111 27.6201 16.2431 27.6531 16.5381 27.1061L16.5821 27.0091L17.4561 24.7041C17.6151 24.2841 17.9301 23.9441 18.3311 23.7521L18.4671 23.6921L20.7741 22.8181C21.3841 22.5861 21.4171 21.7551 20.8711 21.4601L20.7741 21.4161L18.4691 20.5421C18.0506 20.3836 17.7091 20.0703 17.5151 19.6671L17.4561 19.5301L16.5811 17.2241ZM15.8811 19.6021L16.0561 20.0611C16.2076 20.4607 16.4367 20.8264 16.7302 21.137C17.0236 21.4477 17.3757 21.6972 17.7661 21.8711L17.9361 21.9421L18.3961 22.1161L17.9361 22.2911C17.1928 22.5727 16.5791 23.118 16.2121 23.8231L16.1261 24.0011L16.0561 24.1721L15.8811 24.6321L15.7081 24.1731C15.4263 23.4293 14.8806 22.8153 14.1751 22.4481L13.9971 22.3621L13.8261 22.2921L13.3661 22.1171L13.8261 21.9421C14.5693 21.6605 15.1832 21.1156 15.5511 20.4111L15.6371 20.2331L15.7071 20.0621L15.8811 19.6021ZM7.38109 8.53409L7.33709 8.63109L6.33709 11.2671C6.14426 11.7752 5.76172 12.1885 5.27009 12.4201L5.12009 12.4841L2.48509 13.4831C1.87409 13.7151 1.84109 14.5451 2.38809 14.8401L2.48509 14.8841L5.12009 15.8841C5.62909 16.0771 6.04309 16.4601 6.27509 16.9521L6.33809 17.1021L7.33809 19.7381C7.56809 20.3481 8.40009 20.3811 8.69509 19.8341L8.7391 19.7371L9.7391 17.1021C9.93176 16.5934 10.3143 16.1794 10.8061 15.9471L10.9561 15.8851L13.5931 14.8851C14.2031 14.6531 14.2351 13.8221 13.6891 13.5271L13.5921 13.4831L10.9571 12.4851C10.4483 12.2915 10.0345 11.9079 9.8031 11.4151L9.73809 11.2651L8.73809 8.63009C8.50609 8.02009 7.67609 7.98709 7.38109 8.53309V8.53409ZM26.2371 18.0631C25.828 18.0631 25.4357 18.2256 25.1464 18.5149C24.8571 18.8042 24.6946 19.1965 24.6946 19.6056C24.6946 20.0147 24.8571 20.407 25.1464 20.6963C25.4357 20.9856 25.828 21.1481 26.2371 21.1481C26.6462 21.1481 27.0385 20.9856 27.3278 20.6963C27.6171 20.407 27.7796 20.0147 27.7796 19.6056C27.7796 19.1965 27.6171 18.8042 27.3278 18.5149C27.0385 18.2256 26.6462 18.0631 26.2371 18.0631ZM8.03709 11.0081L8.33709 11.7981C8.50533 12.2416 8.75964 12.6474 9.08538 12.9922C9.41113 13.337 9.80186 13.614 10.2351 13.8071L10.4251 13.8861L11.2141 14.1841L10.4241 14.4841C9.59403 14.7985 8.90973 15.4091 8.5031 16.1981L8.41409 16.3821L8.33709 16.5721L8.03709 17.3601L7.73709 16.5731C7.4232 15.7428 6.81297 15.0581 6.0241 14.6511L5.84009 14.5631L5.65009 14.4841L4.86009 14.1841L5.65009 13.8851C6.48007 13.5706 7.16457 12.9606 7.57209 12.1721L7.66009 11.9881L7.73809 11.7981L8.03809 11.0081H8.03709ZM19.9001 2.91809L19.8551 3.01809L18.6051 6.31309C18.3472 6.99447 17.8308 7.54648 17.1681 7.84909L17.0001 7.91909L13.7051 9.16809C13.0581 9.41409 13.0241 10.2931 13.6031 10.6051L13.7051 10.6511L17.0011 11.9031C17.6821 12.1603 18.2336 12.6766 18.5351 13.3391L18.6051 13.5081L19.8551 16.8021C20.0991 17.4481 20.9791 17.4821 21.2911 16.9041L21.3381 16.8021L22.5881 13.5071C22.8465 12.8266 23.3623 12.2752 24.0241 11.9721L24.1931 11.9021L27.4891 10.6521C28.1351 10.4061 28.1691 9.52709 27.5901 9.21609L27.4881 9.16809L24.1941 7.92009C23.5124 7.66116 22.9604 7.14368 22.6581 6.48009L22.5881 6.31309L21.3381 3.01909C21.0921 2.37209 20.2131 2.33909 19.9011 2.91709L19.9001 2.91809ZM20.5971 5.53609L21.1041 6.87609C21.3094 7.4176 21.6207 7.9127 22.0197 8.33237C22.4188 8.75203 22.8976 9.08783 23.4281 9.32009L23.6311 9.40209L24.9701 9.91009L23.6301 10.4191C22.6073 10.8066 21.7682 11.5654 21.2801 12.5441L21.1871 12.7411L21.1041 12.9441L20.5971 14.2841L20.0891 12.9461C19.7017 11.9219 18.9421 11.0816 17.9621 10.5931L17.7651 10.5021L17.5621 10.4191L16.2231 9.91009L17.5631 9.40209C18.5856 9.01369 19.4245 8.25473 19.9131 7.27609L20.0061 7.07809L20.0891 6.87609L20.5971 5.53609ZM11.3871 3.08009C11.0365 3.08009 10.7002 3.21938 10.4523 3.4673C10.2044 3.71522 10.0651 4.05148 10.0651 4.40209C10.0651 4.75271 10.2044 5.08897 10.4523 5.33689C10.7002 5.58481 11.0365 5.72409 11.3871 5.72409C11.7377 5.72409 12.074 5.58481 12.3219 5.33689C12.5698 5.08897 12.7091 4.75271 12.7091 4.40209C12.7091 4.05148 12.5698 3.71522 12.3219 3.4673C12.074 3.21938 11.7377 3.08009 11.3871 3.08009Z" fill="#5D1735"/>
</svg>
