<svg width="24" height="24" viewBox="0 0 24 24" fill="none" xmlns="http://www.w3.org/2000/svg">
<path d="M21.5999 7.39995V18.2C21.5999 18.6773 21.4103 19.1352 21.0727 19.4727C20.7351 19.8103 20.2773 20 19.7999 20H4.1999C3.72251 20 3.26468 19.8103 2.92711 19.4727C2.58954 19.1352 2.3999 18.6773 2.3999 18.2V7.39995C2.3999 6.92256 2.58954 6.46472 2.92711 6.12716C3.26468 5.78959 3.72251 5.59995 4.1999 5.59995H7.4999L7.9615 4.36635C8.08999 4.02372 8.32 3.72846 8.62077 3.52003C8.92155 3.31161 9.27877 3.19994 9.6447 3.19995H14.3511C15.1015 3.19995 15.7727 3.66475 16.0351 4.36635L16.4999 5.59995H19.7999C20.2773 5.59995 20.7351 5.78959 21.0727 6.12716C21.4103 6.46472 21.5999 6.92256 21.5999 7.39995ZM16.4999 12.8C16.4988 11.6068 16.0244 10.4628 15.1807 9.61914C14.337 8.77546 13.1931 8.30101 11.9999 8.29995C10.8068 8.30101 9.66278 8.77546 8.81909 9.61914C7.97541 10.4628 7.50096 11.6068 7.4999 12.8C7.50096 13.9931 7.97541 15.1371 8.81909 15.9808C9.66278 16.8244 10.8068 17.2989 11.9999 17.3C13.1931 17.2989 14.337 16.8244 15.1807 15.9808C16.0244 15.1371 16.4988 13.9931 16.4999 12.8ZM15.2999 12.8C15.2986 13.6748 14.9505 14.5134 14.332 15.132C13.7134 15.7506 12.8747 16.0987 11.9999 16.1C11.1251 16.0987 10.2864 15.7506 9.66785 15.132C9.04926 14.5134 8.70117 13.6748 8.6999 12.8C8.70117 11.9251 9.04926 11.0865 9.66785 10.4679C10.2864 9.84931 11.1251 9.50122 11.9999 9.49995C12.8747 9.50122 13.7134 9.84931 14.332 10.4679C14.9505 11.0865 15.2986 11.9251 15.2999 12.8Z" fill="#5D1735"/>
</svg>
