<svg width="16" height="16" viewBox="0 0 16 16" fill="none" xmlns="http://www.w3.org/2000/svg">
<path d="M2.25094 9.90005C2.08925 10.0829 2 10.3185 2 10.5625C2 10.8066 2.08925 11.0422 2.25094 11.225C2.39095 11.3851 2.58867 11.4832 2.80083 11.4978C3.01299 11.5124 3.2223 11.4424 3.38294 11.303L3.46294 11.225L7.99994 6.26505L12.5379 11.225C12.6779 11.3845 12.8752 11.4822 13.0869 11.4968C13.2985 11.5114 13.5074 11.4418 13.6679 11.303L13.7479 11.225C13.8967 11.0568 13.9848 10.8434 13.998 10.6192C14.0113 10.3949 13.9489 10.1727 13.8209 9.98805L13.7509 9.90005L8.60594 4.27405C8.46599 4.11458 8.26867 4.01689 8.057 4.00228C7.84534 3.98767 7.63647 4.05732 7.47594 4.19605L7.39394 4.27405L2.25094 9.90005Z" fill="white"/>
</svg>
