<svg width="16" height="16" viewBox="0 0 16 16" fill="none" xmlns="http://www.w3.org/2000/svg">
<path fill-rule="evenodd" clip-rule="evenodd" d="M8.0001 14.4C9.69748 14.4 11.3253 13.7257 12.5256 12.5255C13.7258 11.3252 14.4001 9.69736 14.4001 7.99998C14.4001 6.30259 13.7258 4.67473 12.5256 3.47449C11.3253 2.27426 9.69748 1.59998 8.0001 1.59998C6.30271 1.59998 4.67485 2.27426 3.47461 3.47449C2.27438 4.67473 1.6001 6.30259 1.6001 7.99998C1.6001 9.69736 2.27438 11.3252 3.47461 12.5255C4.67485 13.7257 6.30271 14.4 8.0001 14.4ZM9.7301 5.46698C9.84419 5.35643 9.99718 5.2952 10.156 5.2965C10.3149 5.2978 10.4669 5.36153 10.5791 5.47393C10.6914 5.58633 10.755 5.73837 10.7561 5.89723C10.7572 6.05609 10.6958 6.20901 10.5851 6.32298L8.8731 8.03498L10.5851 9.74697C10.6413 9.80312 10.6859 9.86978 10.7163 9.94315C10.7468 10.0165 10.7625 10.0952 10.7625 10.1746C10.7626 10.2541 10.747 10.3327 10.7166 10.4061C10.6863 10.4796 10.6417 10.5463 10.5856 10.6025C10.5295 10.6587 10.4628 10.7033 10.3894 10.7337C10.316 10.7642 10.2374 10.7799 10.158 10.7799C10.0785 10.78 9.99984 10.7644 9.92643 10.734C9.85302 10.7036 9.7863 10.6591 9.7301 10.603L8.0181 8.89098L6.3061 10.603C6.19259 10.7165 6.03863 10.7803 5.8781 10.7803C5.71757 10.7803 5.56361 10.7165 5.4501 10.603C5.33658 10.4895 5.27281 10.3355 5.27281 10.175C5.27281 10.0144 5.33658 9.86049 5.4501 9.74697L7.1621 8.03498L5.4501 6.32298C5.33658 6.20946 5.27281 6.05551 5.27281 5.89498C5.27281 5.73444 5.33658 5.58049 5.4501 5.46698C5.56361 5.35346 5.71757 5.28969 5.8781 5.28969C6.03863 5.28969 6.19259 5.35346 6.3061 5.46698L8.0181 7.17998L9.7301 5.46698Z" fill="#EEF3FC"/>
</svg>
