<svg width="30" height="30" viewBox="0 0 30 30" fill="none" xmlns="http://www.w3.org/2000/svg">
<path fill-rule="evenodd" clip-rule="evenodd" d="M14.9999 3C15.5099 3 15.9229 3.413 15.9229 3.923V4.846H17.7689C18.0136 4.846 18.2484 4.94324 18.4215 5.11634C18.5946 5.28944 18.6919 5.52421 18.6919 5.769C18.6919 6.01379 18.5946 6.24856 18.4215 6.42166C18.2484 6.59476 18.0136 6.692 17.7689 6.692H15.9229V23.308H17.7689C18.0136 23.308 18.2484 23.4052 18.4215 23.5783C18.5946 23.7514 18.6919 23.9862 18.6919 24.231C18.6919 24.4758 18.5946 24.7106 18.4215 24.8837C18.2484 25.0568 18.0136 25.154 17.7689 25.154H15.9229V26.077C15.9229 26.3218 15.8256 26.5566 15.6525 26.7297C15.4794 26.9028 15.2446 27 14.9999 27C14.7551 27 14.5203 26.9028 14.3472 26.7297C14.1741 26.5566 14.0769 26.3218 14.0769 26.077V25.154H8.53785C7.34862 25.1538 6.20536 24.6946 5.34647 23.872C4.48759 23.0495 3.97939 21.9271 3.92785 20.739L3.92285 20.539V9.461C3.92301 8.27167 4.38223 7.12829 5.20475 6.26925C6.02728 5.4102 7.14965 4.90179 8.33785 4.85L8.53785 4.846H14.0769V3.923C14.0769 3.413 14.4899 3 14.9999 3ZM25.1529 19.615C25.6629 19.615 26.0759 20.029 26.0759 20.539C26.0759 21.1451 25.9564 21.7453 25.7245 22.3053C25.4925 22.8653 25.1524 23.3741 24.7238 23.8027C24.2951 24.2312 23.7863 24.5711 23.2262 24.803C22.6662 25.0349 22.066 25.1541 21.4599 25.154C21.224 25.1545 20.9969 25.0647 20.8252 24.903C20.6535 24.7413 20.5502 24.52 20.5365 24.2846C20.5228 24.0491 20.5997 23.8174 20.7516 23.6369C20.9034 23.4564 21.1185 23.3408 21.3529 23.314L21.4599 23.308C22.1945 23.308 22.8991 23.0162 23.4185 22.4967C23.938 21.9772 24.2299 21.2726 24.2299 20.538C24.2299 20.028 24.6429 19.615 25.1529 19.615ZM8.53785 6.692H14.0769V23.308H8.53785L8.37585 23.303C7.67068 23.2614 7.00803 22.952 6.52343 22.4381C6.03883 21.9241 5.7689 21.2444 5.76885 20.538V9.462L5.77385 9.299C5.81541 8.594 6.12468 7.93149 6.63843 7.44692C7.15219 6.96235 7.83163 6.69231 8.53785 6.692ZM25.1539 12.231C25.6639 12.231 26.0769 12.644 26.0769 13.154V16.846C26.0769 17.0908 25.9796 17.3256 25.8065 17.4987C25.6334 17.6718 25.3986 17.769 25.1539 17.769C24.9091 17.769 24.6743 17.6718 24.5012 17.4987C24.3281 17.3256 24.2309 17.0908 24.2309 16.846V13.154C24.2309 12.644 24.6439 12.231 25.1539 12.231ZM26.0769 9.461C26.0769 8.85487 25.9574 8.25467 25.7255 7.69468C25.4935 7.1347 25.1534 6.6259 24.7248 6.19735C24.2961 5.76879 23.7873 5.42888 23.2272 5.19701C22.6672 4.96514 22.067 4.84587 21.4609 4.846C21.2161 4.846 20.9813 4.94324 20.8082 5.11634C20.6351 5.28944 20.5379 5.52421 20.5379 5.769C20.5379 6.01379 20.6351 6.24856 20.8082 6.42166C20.9813 6.59476 21.2161 6.692 21.4609 6.692C22.1955 6.692 22.9001 6.98384 23.4195 7.50331C23.939 8.02279 24.2309 8.72735 24.2309 9.462C24.2309 9.70679 24.3281 9.94156 24.5012 10.1147C24.6743 10.2878 24.9091 10.385 25.1539 10.385C25.3986 10.385 25.6334 10.2878 25.8065 10.1147C25.9796 9.94156 26.0769 9.7058 26.0769 9.461Z" fill="#5D1735"/>
</svg>
