<svg width="17" height="16" viewBox="0 0 17 16" fill="none" xmlns="http://www.w3.org/2000/svg">
<path fill-rule="evenodd" clip-rule="evenodd" d="M4.5101 4.80005H4.1001C3.56966 4.80005 3.06096 5.01076 2.68588 5.38584C2.31081 5.76091 2.1001 6.26962 2.1001 6.80005V12.4C2.1001 12.9305 2.31081 13.4392 2.68588 13.8143C3.06096 14.1893 3.56966 14.4 4.1001 14.4H9.7001C10.2305 14.4 10.7392 14.1893 11.1143 13.8143C11.4894 13.4392 11.7001 12.9305 11.7001 12.4V12H10.7001V12.4C10.7001 12.6653 10.5947 12.9196 10.4072 13.1072C10.2197 13.2947 9.96531 13.4 9.7001 13.4H4.1001C3.83488 13.4 3.58053 13.2947 3.39299 13.1072C3.20545 12.9196 3.1001 12.6653 3.1001 12.4V6.80005C3.1001 6.53483 3.20545 6.28048 3.39299 6.09294C3.58053 5.90541 3.83488 5.80005 4.1001 5.80005H4.5101V4.80005Z" fill="#5D1735"/>
<path fill-rule="evenodd" clip-rule="evenodd" d="M12.8998 2.59998H7.2998C7.03459 2.59998 6.78023 2.70533 6.5927 2.89287C6.40516 3.08041 6.2998 3.33476 6.2998 3.59998V9.19998C6.2998 9.46519 6.40516 9.71955 6.5927 9.90708C6.78023 10.0946 7.03459 10.2 7.2998 10.2H12.8998C13.165 10.2 13.4194 10.0946 13.6069 9.90708C13.7944 9.71955 13.8998 9.46519 13.8998 9.19998V3.59998C13.8998 3.33476 13.7944 3.08041 13.6069 2.89287C13.4194 2.70533 13.165 2.59998 12.8998 2.59998ZM7.2998 1.59998C6.76937 1.59998 6.26066 1.81069 5.88559 2.18576C5.51052 2.56083 5.2998 3.06954 5.2998 3.59998V9.19998C5.2998 9.73041 5.51052 10.2391 5.88559 10.6142C6.26066 10.9893 6.76937 11.2 7.2998 11.2H12.8998C13.4302 11.2 13.9389 10.9893 14.314 10.6142C14.6891 10.2391 14.8998 9.73041 14.8998 9.19998V3.59998C14.8998 3.06954 14.6891 2.56083 14.314 2.18576C13.9389 1.81069 13.4302 1.59998 12.8998 1.59998H7.2998Z" fill="#5D1735"/>
</svg>
