<svg width="30" height="30" viewBox="0 0 30 30" fill="none" xmlns="http://www.w3.org/2000/svg">
<path fill-rule="evenodd" clip-rule="evenodd" d="M2.08902 14.7001C4.76902 10.5881 9.55302 7.86011 15 7.86011C20.447 7.86011 25.232 10.5871 27.911 14.7001C27.9689 14.7893 27.9997 14.8933 27.9997 14.9996C27.9997 15.1059 27.9689 15.2099 27.911 15.2991C25.231 19.4141 20.445 22.1401 15 22.1401C9.55302 22.1401 4.76802 19.4121 2.08902 15.3001C2.03093 15.2108 2 15.1066 2 15.0001C2 14.8936 2.03093 14.7894 2.08902 14.7001ZM3.21002 15.0001C5.72002 18.6331 10.058 21.0421 15 21.0421C19.942 21.0421 24.277 18.6321 26.79 15.0001C24.277 11.3691 19.942 8.95811 15 8.95811C10.058 8.95811 5.72002 11.3681 3.21002 15.0001ZM10.862 15.0001C10.862 13.9028 11.2979 12.8504 12.0739 12.0745C12.8498 11.2985 13.9022 10.8626 14.9995 10.8626C16.0969 10.8626 17.1492 11.2985 17.9252 12.0745C18.7011 12.8504 19.137 13.9028 19.137 15.0001C19.137 16.0974 18.7011 17.1498 17.9252 17.9258C17.1492 18.7017 16.0969 19.1376 14.9995 19.1376C13.9022 19.1376 12.8498 18.7017 12.0739 17.9258C11.2979 17.1498 10.862 16.0974 10.862 15.0001ZM15 11.7821C14.1464 11.7821 13.3278 12.1212 12.7242 12.7248C12.1206 13.3284 11.7815 14.147 11.7815 15.0006C11.7815 15.8542 12.1206 16.6728 12.7242 17.2764C13.3278 17.88 14.1464 18.2191 15 18.2191C15.8536 18.2191 16.6723 17.88 17.2758 17.2764C17.8794 16.6728 18.2185 15.8542 18.2185 15.0006C18.2185 14.147 17.8794 13.3284 17.2758 12.7248C16.6723 12.1212 15.8536 11.7821 15 11.7821Z" fill="#5D1735"/>
<path fill-rule="evenodd" clip-rule="evenodd" d="M1.88006 14.5641C4.60506 10.3801 9.46906 7.61011 15.0001 7.61011C20.5311 7.61011 25.3951 10.3801 28.1201 14.5641C28.2045 14.6938 28.2495 14.8453 28.2495 15.0001C28.2495 15.1549 28.2045 15.3064 28.1201 15.4361C25.3951 19.6221 20.5301 22.3901 15.0001 22.3901C9.46906 22.3901 4.60506 19.6201 1.88006 15.4371C1.7955 15.3072 1.75049 15.1556 1.75049 15.0006C1.75049 14.8456 1.7955 14.694 1.88006 14.5641ZM15.0001 8.11011C9.63706 8.11011 4.93106 10.7961 2.29906 14.8381C2.26743 14.8868 2.2506 14.9436 2.2506 15.0016C2.2506 15.0596 2.26743 15.1164 2.29906 15.1651C4.93006 19.2041 9.63607 21.8901 15.0001 21.8901C20.3611 21.8901 25.0691 19.2061 27.7011 15.1631C27.733 15.1144 27.75 15.0574 27.7501 14.9991M15.0001 8.11011C20.3631 8.11011 25.0691 10.7961 27.7011 14.8371L15.0001 8.11011ZM3.51606 15.0001C5.99306 18.4871 10.2051 20.7931 15.0001 20.7931C19.7951 20.7931 24.0041 18.4841 26.4841 15.0001C24.0041 11.5151 19.7941 9.20811 15.0001 9.20811C10.2051 9.20811 5.99306 11.5151 3.51606 15.0001ZM3.00506 14.8591C5.56106 11.1591 9.97606 8.70911 15.0001 8.70911C20.0241 8.70911 24.4361 11.1591 26.9951 14.8591L27.0931 15.0011L26.9951 15.1431C24.4351 18.8421 20.0241 21.2931 15.0001 21.2931C9.97606 21.2931 5.56106 18.8431 3.00506 15.1431L2.90706 15.0001L3.00506 14.8581V14.8591ZM11.8981 11.8991C12.3035 11.4826 12.7876 11.1507 13.3223 10.9229C13.857 10.695 14.4316 10.5756 15.0129 10.5717C15.5941 10.5678 16.1703 10.6793 16.7081 10.8999C17.2458 11.1206 17.7344 11.4458 18.1454 11.8568C18.5564 12.2678 18.8816 12.7564 19.1022 13.2941C19.3228 13.8319 19.4344 14.4081 19.4305 14.9893C19.4265 15.5705 19.3072 16.1452 19.0793 16.6799C18.8514 17.2146 18.5196 17.6987 18.1031 18.1041C17.2801 18.9271 16.1639 19.3894 15.0001 19.3894C13.8362 19.3894 12.72 18.9271 11.8971 18.1041C11.0741 17.2811 10.6118 16.165 10.6118 15.0011C10.6118 13.8373 11.0741 12.7211 11.8971 11.8981L11.8981 11.8991ZM15.0001 11.1121C13.969 11.1121 12.9802 11.5217 12.2512 12.2507C11.5221 12.9798 11.1126 13.9686 11.1126 14.9996C11.1126 16.0306 11.5221 17.0194 12.2512 17.7485C12.9802 18.4775 13.969 18.8871 15.0001 18.8871C16.0311 18.8871 17.0199 18.4775 17.7489 17.7485C18.478 17.0194 18.8876 16.0306 18.8876 14.9996C18.8876 13.9686 18.478 12.9798 17.7489 12.2507C17.0199 11.5217 16.0311 11.1121 15.0001 11.1121ZM15.0001 12.0321C14.3147 12.0344 13.6512 12.2737 13.1221 12.7094C12.593 13.1451 12.2308 13.7503 12.0971 14.4226C11.9634 15.0948 12.0662 15.7926 12.3883 16.3976C12.7103 17.0026 13.2317 17.4777 13.8641 17.7421C14.2695 17.9101 14.7072 17.986 15.1455 17.9645C15.5838 17.943 16.012 17.8246 16.399 17.6177C16.7861 17.4109 17.1224 17.1207 17.3839 16.7682C17.6453 16.4158 17.8254 16.0097 17.911 15.5792C17.9966 15.1488 17.9857 14.7047 17.8791 14.279C17.7725 13.8533 17.5728 13.4565 17.2944 13.1173C17.016 12.778 16.6658 12.5047 16.2691 12.3171C15.8723 12.1294 15.4389 12.0321 15.0001 12.0321ZM13.6731 11.7961C14.0944 11.6185 14.5467 11.5259 15.004 11.5238C15.4613 11.5216 15.9144 11.6099 16.3374 11.7836C16.7604 11.9573 17.1449 12.2129 17.4688 12.5357C17.7926 12.8585 18.0494 13.2422 18.2243 13.6647C18.3993 14.0872 18.489 14.5401 18.4883 14.9973C18.4875 15.4546 18.3964 15.9072 18.22 16.3291C18.0437 16.751 17.7857 17.1339 17.4608 17.4556C17.1359 17.7774 16.7506 18.0318 16.3271 18.2041C15.4786 18.5493 14.528 18.5447 13.6829 18.1915C12.8378 17.8383 12.1667 17.165 11.8162 16.3188C11.4657 15.4725 11.4643 14.5219 11.8121 13.6746C12.16 12.8272 12.829 12.1519 13.6731 11.7961Z" fill="#5D1735"/>
</svg>
