<svg width="24" height="24" viewBox="0 0 24 24" fill="none" xmlns="http://www.w3.org/2000/svg">
<g clip-path="url(#clip0_47_300)">
<mask id="mask0_47_300" style="mask-type:luminance" maskUnits="userSpaceOnUse" x="0" y="0" width="24" height="24">
<path d="M0 0H24V24H0V0Z" fill="white"/>
</mask>
<g mask="url(#mask0_47_300)">
<path fill-rule="evenodd" clip-rule="evenodd" d="M5.04004 11.3801C5.04004 6.9951 8.08504 3.6001 12 3.6001C15.915 3.6001 18.96 6.9961 18.96 11.3801C18.96 12.8681 18.558 14.3581 17.916 15.6761C17.8324 15.8478 17.6839 15.9793 17.5033 16.0415C17.3227 16.1038 17.1248 16.0918 16.953 16.0081C16.7813 15.9244 16.6499 15.776 16.5876 15.5954C16.5253 15.4148 16.5374 15.2168 16.621 15.0451C17.184 13.8901 17.52 12.6151 17.52 11.3791C17.52 7.6421 14.979 5.0401 12 5.0401C9.02204 5.0401 6.48004 7.6421 6.48004 11.3801C6.48004 12.6151 6.81604 13.8901 7.37904 15.0451C7.45523 15.2157 7.46212 15.4092 7.39826 15.5848C7.3344 15.7604 7.20478 15.9043 7.0368 15.9861C6.86881 16.0678 6.67561 16.0811 6.49802 16.0231C6.32042 15.9651 6.17233 15.8403 6.08504 15.6751C5.44204 14.3581 5.04004 12.8681 5.04004 11.3791V11.3801ZM8.85404 18.2941C8.91002 18.2178 8.98048 18.1533 9.0614 18.1043C9.14232 18.0553 9.2321 18.0227 9.32562 18.0084C9.41914 17.9941 9.51457 17.9984 9.60644 18.021C9.69831 18.0436 9.78482 18.084 9.86104 18.1401C10.603 18.6841 11.341 18.9601 12 18.9601C12.66 18.9601 13.397 18.6841 14.14 18.1401C14.2157 18.0784 14.3032 18.0327 14.3971 18.0059C14.4911 17.9791 14.5894 17.9716 14.6863 17.984C14.7832 17.9964 14.8766 18.0284 14.9607 18.078C15.0448 18.1276 15.118 18.1938 15.1757 18.2726C15.2335 18.3514 15.2745 18.4411 15.2965 18.5363C15.3185 18.6315 15.3208 18.7301 15.3035 18.8262C15.2861 18.9223 15.2494 19.0139 15.1955 19.0954C15.1416 19.1768 15.0717 19.2465 14.99 19.3001C14.086 19.9651 13.055 20.4001 12 20.4001C10.945 20.4001 9.91404 19.9651 9.01004 19.3001C8.85598 19.1874 8.753 19.018 8.72375 18.8294C8.6945 18.6407 8.74136 18.4482 8.85404 18.2941Z" fill="#5D1735"/>
<path fill-rule="evenodd" clip-rule="evenodd" d="M13.7329 16.1101C13.7884 16.1879 13.8109 16.2845 13.7953 16.3788C13.7798 16.4731 13.7275 16.5574 13.6499 16.6132C13.1713 16.9649 12.5938 17.1563 11.9999 17.1601C11.4059 17.1565 10.8284 16.965 10.3499 16.6132C10.2722 16.5575 10.2198 16.4732 10.2042 16.3788C10.1886 16.2845 10.2112 16.1879 10.2669 16.1101C10.3226 16.0324 10.4068 15.98 10.5012 15.9645C10.5955 15.9489 10.6922 15.9715 10.7699 16.0271C11.1419 16.2941 11.5599 16.4401 11.9999 16.4401C12.4399 16.4401 12.8579 16.2941 13.2299 16.0271C13.2683 15.9995 13.3118 15.9797 13.358 15.9689C13.4041 15.9582 13.4519 15.9566 13.4986 15.9643C13.5453 15.972 13.5901 15.9888 13.6303 16.0139C13.6705 16.0389 13.7053 16.0716 13.7329 16.1101ZM8.51986 16.8001C8.51986 16.7047 8.48193 16.6131 8.41442 16.5456C8.34691 16.4781 8.25534 16.4401 8.15986 16.4401H6.71986C6.67259 16.4401 6.62577 16.4495 6.5821 16.4676C6.53842 16.4856 6.49873 16.5122 6.4653 16.5456C6.43188 16.579 6.40536 16.6187 6.38727 16.6624C6.36917 16.7061 6.35986 16.7529 6.35986 16.8001C6.35986 16.8474 6.36917 16.8942 6.38727 16.9379C6.40536 16.9816 6.43188 17.0213 6.4653 17.0547C6.49873 17.0881 6.53842 17.1147 6.5821 17.1327C6.62577 17.1508 6.67259 17.1601 6.71986 17.1601H7.79986V18.2401C7.79986 18.3356 7.83779 18.4272 7.9053 18.4947C7.97282 18.5622 8.06439 18.6001 8.15986 18.6001C8.25534 18.6001 8.34691 18.5622 8.41442 18.4947C8.48193 18.4272 8.51986 18.3356 8.51986 18.2401V16.8001Z" fill="#5D1735"/>
<path fill-rule="evenodd" clip-rule="evenodd" d="M8.17391 16.7852C8.20747 16.8186 8.2341 16.8584 8.25227 16.9021C8.27044 16.9459 8.2798 16.9928 8.2798 17.0402C8.2798 17.0876 8.27044 17.1345 8.25227 17.1782C8.2341 17.222 8.20747 17.2617 8.17391 17.2952L6.73391 18.7352C6.66628 18.8027 6.57461 18.8405 6.47906 18.8405C6.38351 18.8404 6.29191 18.8023 6.22441 18.7347C6.15691 18.6671 6.11905 18.5754 6.11914 18.4798C6.11923 18.3843 6.15728 18.2927 6.22491 18.2252L7.66491 16.7852C7.69836 16.7516 7.7381 16.725 7.78186 16.7068C7.82562 16.6887 7.87253 16.6793 7.91991 16.6793C7.96729 16.6793 8.01421 16.6887 8.05797 16.7068C8.10172 16.725 8.14147 16.7516 8.17491 16.7852H8.17391ZM15.4799 16.8002C15.4799 16.7047 15.5178 16.6131 15.5854 16.5456C15.6529 16.4781 15.7444 16.4402 15.8399 16.4402H17.2799C17.3391 16.4403 17.3973 16.4551 17.4495 16.483C17.5016 16.511 17.5461 16.5513 17.579 16.6005C17.6119 16.6497 17.6322 16.7062 17.6381 16.7651C17.644 16.824 17.6354 16.8834 17.6129 16.9382C17.5857 17.0041 17.5395 17.0604 17.4802 17.0999C17.4209 17.1394 17.3512 17.1604 17.2799 17.1602H16.1999V18.2402C16.1999 18.3357 16.162 18.4272 16.0945 18.4947C16.027 18.5623 15.9354 18.6002 15.8399 18.6002C15.7444 18.6002 15.6529 18.5623 15.5854 18.4947C15.5178 18.4272 15.4799 18.3357 15.4799 18.2402V16.8002Z" fill="#5D1735"/>
<path fill-rule="evenodd" clip-rule="evenodd" d="M15.826 16.7851C15.7923 16.8185 15.7656 16.8582 15.7474 16.9019C15.7291 16.9457 15.7197 16.9927 15.7197 17.0401C15.7197 17.0875 15.7291 17.1345 15.7474 17.1782C15.7656 17.222 15.7923 17.2617 15.826 17.2951L17.266 18.7351C17.3337 18.8026 17.4253 18.8404 17.5209 18.8404C17.6164 18.8403 17.708 18.8022 17.7755 18.7346C17.843 18.667 17.8809 18.5753 17.8808 18.4797C17.8807 18.3842 17.8427 18.2926 17.775 18.2251L16.335 16.7851C16.3016 16.7515 16.2618 16.7249 16.2181 16.7067C16.1743 16.6886 16.1274 16.6792 16.08 16.6792C16.0326 16.6792 15.9857 16.6886 15.942 16.7067C15.8982 16.7249 15.8585 16.7515 15.825 16.7851H15.826Z" fill="#5D1735"/>
</g>
</g>
<defs>
<clipPath id="clip0_47_300">
<rect width="24" height="24" fill="white"/>
</clipPath>
</defs>
</svg>
