<svg width="30" height="30" viewBox="0 0 30 30" fill="none" xmlns="http://www.w3.org/2000/svg">
<path fill-rule="evenodd" clip-rule="evenodd" d="M18.2901 4.679L18.7261 5.1H19.8041C20.3081 5.1 20.6921 5.232 21.0161 5.468C21.3561 5.716 21.7131 6.139 22.0381 6.842C22.7031 8.283 23.1051 10.622 23.1051 14.003C23.1051 20.707 24.9511 23.9 25.9711 25.141C25.7605 25.2854 25.5388 25.4128 25.3081 25.522C24.5141 25.905 23.1201 26.358 20.8621 26.431C17.7911 26.53 15.9621 26.503 13.7341 26.471C12.4331 26.453 10.9941 26.431 9.09408 26.433C6.75908 26.435 5.39808 25.979 4.66108 25.6C4.42776 25.4834 4.20751 25.3423 4.00408 25.179C5.01708 23.966 6.90008 20.773 6.90008 14.003C6.90008 5.956 12.7161 3.5 15.0031 3.5C16.0681 3.5 16.6471 3.615 17.0451 3.775C17.4301 3.93 17.7681 4.175 18.2891 4.679H18.2901ZM27.3601 25.941C27.3763 25.9242 27.3937 25.9085 27.4121 25.894C27.5235 25.8272 27.6171 25.7343 27.6846 25.6233C27.7522 25.5124 27.7918 25.3867 27.8001 25.257C27.8078 25.1266 27.7841 24.9963 27.7308 24.8771C27.6776 24.7579 27.5964 24.6532 27.4941 24.572C27.4651 24.55 24.6051 22.188 24.6051 14.003C24.6051 7.101 22.9911 3.6 19.8051 3.6H19.3321C18.1821 2.49 17.3201 2 15.0021 2C11.9971 2 5.40008 5.023 5.40008 14.003C5.40008 22.188 2.54008 24.55 2.52008 24.566C2.41529 24.6446 2.33141 24.7478 2.27582 24.8664C2.22022 24.985 2.1946 25.1155 2.20122 25.2463C2.20783 25.3772 2.24648 25.5044 2.31376 25.6168C2.38104 25.7292 2.4749 25.8234 2.58708 25.891C2.60627 25.9074 2.624 25.9255 2.64008 25.945C2.93708 26.271 4.45508 27.936 9.09408 27.933C10.9471 27.932 12.3711 27.953 13.6711 27.971C15.9271 28.003 17.8091 28.03 20.9101 27.93C25.4031 27.785 27.0491 26.235 27.3601 25.941ZM15.9461 17.191C15.9597 17.0736 16.0066 16.9625 16.0812 16.8708C16.1559 16.7791 16.2552 16.7107 16.3674 16.6736C16.4797 16.6365 16.6002 16.6322 16.7147 16.6614C16.8293 16.6905 16.9332 16.7518 17.0141 16.838L18.4071 18.326L18.4951 18.412C18.7701 18.66 19.1301 18.792 19.4991 18.782L21.5361 18.727L21.6241 18.73C22.1341 18.783 22.3701 19.429 21.9761 19.798L20.4881 21.192L20.4021 21.28C20.1551 21.552 20.0221 21.911 20.0321 22.282L20.0881 24.319L20.0841 24.407C20.0703 24.5244 20.0233 24.6353 19.9486 24.7269C19.8739 24.8184 19.7746 24.8867 19.6624 24.9237C19.5502 24.9607 19.4297 24.9648 19.3152 24.9356C19.2007 24.9065 19.0969 24.8452 19.0161 24.759L17.6241 23.272L17.5361 23.185C17.2617 22.9374 16.9025 22.805 16.5331 22.815L14.4951 22.871L14.4071 22.868C14.2895 22.8544 14.1783 22.8075 14.0866 22.7327C13.9948 22.6579 13.9264 22.5584 13.8894 22.446C13.8524 22.3336 13.8483 22.2129 13.8777 22.0983C13.907 21.9836 13.9686 21.8798 14.0551 21.799L15.5431 20.407L15.6301 20.319C15.8776 20.0445 16.01 19.6854 16.0001 19.316L15.9431 17.279L15.9461 17.191ZM17.5031 19.171L17.2261 18.876L17.2371 19.282V19.435L17.2271 19.598C17.1672 20.2524 16.869 20.8621 16.3891 21.311L16.0931 21.588L16.4991 21.578H16.6521L16.8151 21.588C17.4701 21.648 18.0801 21.945 18.5291 22.425L18.8051 22.721L18.7951 22.315V22.163L18.8051 22C18.8641 21.345 19.1621 20.735 19.6421 20.287L19.9381 20.009L19.5321 20.019H19.3791C19.026 20.0085 18.6785 19.9282 18.3565 19.7829C18.0345 19.6375 17.7445 19.4299 17.5031 19.172V19.171Z" fill="#5D1735"/>
</svg>
