<svg width="30" height="30" viewBox="0 0 30 30" fill="none" xmlns="http://www.w3.org/2000/svg">
<path fill-rule="evenodd" clip-rule="evenodd" d="M23.7882 2.99501C26.1142 2.99501 28.0002 4.45901 28.0002 6.26401C28.0002 6.94701 27.7302 7.58201 27.2672 8.10701L27.1232 8.26101L20.5842 14.784L20.7182 14.916C20.8058 15.0034 20.8752 15.1072 20.9226 15.2215C20.97 15.3358 20.9944 15.4583 20.9944 15.582C20.9944 15.7057 20.97 15.8282 20.9226 15.9425C20.8752 16.0568 20.8058 16.1606 20.7182 16.248L17.9112 19.05C18.207 19.4113 18.3578 19.8698 18.3341 20.3362C18.3105 20.8026 18.1141 21.2435 17.7832 21.573L12.4452 26.897C11.9171 27.4241 11.2447 27.7828 10.5128 27.9281C9.781 28.0733 9.02254 27.9985 8.33319 27.713C7.87527 27.524 7.45903 27.2468 7.10819 26.897L3.10519 22.904C2.57823 22.3777 2.21923 21.707 2.07362 20.9766C1.92801 20.2463 2.00234 19.4891 2.28719 18.801C2.47719 18.344 2.75519 17.929 3.10519 17.579L8.44219 12.254C8.77332 11.9236 9.21526 11.7278 9.68246 11.7045C10.1496 11.6813 10.6089 11.8322 10.9712 12.128L13.7802 9.32601C13.9572 9.14929 14.1971 9.05003 14.4472 9.05003C14.6973 9.05003 14.9372 9.14929 15.1142 9.32601L15.2472 9.45901L20.4772 4.24101C21.2492 3.48301 22.4452 2.99501 23.7882 2.99501ZM27.2182 20.846C27.297 20.9247 27.3596 21.0181 27.4022 21.121C27.4449 21.2239 27.4669 21.3341 27.4669 21.4455C27.4669 21.5569 27.4449 21.6672 27.4022 21.77C27.3596 21.8729 27.297 21.9663 27.2182 22.045L25.7512 23.508L27.2182 24.973C27.3766 25.1321 27.4655 25.3475 27.4655 25.572C27.4655 25.7965 27.3766 26.0119 27.2182 26.171C27.0588 26.3301 26.8429 26.4194 26.6177 26.4194C26.3925 26.4194 26.1766 26.3301 26.0172 26.171L24.5502 24.707L23.0822 26.171C23.0034 26.25 22.9098 26.3127 22.8068 26.3555C22.7037 26.3982 22.5933 26.4203 22.4817 26.4203C22.3701 26.4203 22.2597 26.3982 22.1566 26.3555C22.0536 26.3127 21.96 26.25 21.8812 26.171C21.7228 26.0119 21.6339 25.7965 21.6339 25.572C21.6339 25.3475 21.7228 25.1321 21.8812 24.973L23.3482 23.508L21.8812 22.045C21.7225 21.8859 21.6334 21.6703 21.6334 21.4455C21.6334 21.2207 21.7225 21.0052 21.8812 20.846C21.96 20.7672 22.0535 20.7046 22.1564 20.6619C22.2594 20.6192 22.3697 20.5973 22.4812 20.5973C22.5926 20.5973 22.703 20.6192 22.806 20.6619C22.9089 20.7046 23.0024 20.7672 23.0812 20.846L24.5492 22.31L26.0172 20.847C26.096 20.7682 26.1895 20.7056 26.2924 20.6629C26.3954 20.6202 26.5057 20.5983 26.6172 20.5983C26.7286 20.5983 26.839 20.6202 26.942 20.6629C27.0449 20.7056 27.1384 20.7682 27.2172 20.847L27.2182 20.846ZM9.68519 13.422L9.64519 13.452L4.30719 18.778C3.93653 19.148 3.72006 19.6449 3.7015 20.1683C3.68294 20.6917 3.86367 21.2027 4.20719 21.598L4.30719 21.706L8.31019 25.7C8.68173 26.0705 9.17967 26.2867 9.70405 26.3053C10.2284 26.3238 10.7404 26.1433 11.1372 25.8L11.2452 25.7L16.5832 20.375C16.6123 20.3458 16.6309 20.3079 16.6364 20.2671C16.6418 20.2262 16.6336 20.1848 16.6132 20.149L16.5832 20.109L9.91119 13.453C9.88204 13.4239 9.84419 13.4052 9.8034 13.3996C9.7626 13.394 9.7211 13.4019 9.68519 13.422ZM10.5782 16.381C10.6569 16.4597 10.7193 16.553 10.7619 16.6558C10.8044 16.7586 10.8264 16.8688 10.8264 16.98C10.8264 17.0913 10.8044 17.2014 10.7619 17.3042C10.7193 17.407 10.6569 17.5004 10.5782 17.579L7.11019 21.04C6.94786 21.1808 6.73822 21.255 6.52344 21.2474C6.30867 21.2399 6.10471 21.1513 5.95262 20.9995C5.80053 20.8477 5.71161 20.6439 5.70373 20.4291C5.69586 20.2143 5.76963 20.0046 5.91019 19.842L9.37819 16.381C9.53755 16.2219 9.75352 16.1326 9.97869 16.1326C10.2039 16.1326 10.4198 16.2219 10.5792 16.381H10.5782ZM14.4482 11.056L12.1792 13.319L16.7162 17.846L18.9842 15.583L14.4472 11.056H14.4482ZM19.7982 7.31601L16.4492 10.656L19.3852 13.586L23.4572 9.52301C21.7502 9.42001 20.3302 8.52901 19.7982 7.31601ZM6.73819 6.45001C6.81717 6.5287 6.87983 6.62221 6.92259 6.72517C6.96535 6.82813 6.98736 6.93852 6.98736 7.05001C6.98736 7.1615 6.96535 7.27189 6.92259 7.37485C6.87983 7.47781 6.81717 7.57132 6.73819 7.65001L5.93819 8.44901L6.74019 9.24701C6.85921 9.36559 6.94027 9.51689 6.97307 9.68166C7.00587 9.84644 6.98892 10.0172 6.92439 10.1724C6.85985 10.3275 6.75064 10.4599 6.61065 10.5528C6.47065 10.6457 6.3062 10.6948 6.13819 10.694C5.91311 10.6937 5.69734 10.6042 5.53819 10.445L4.73719 9.64701L3.93719 10.445C3.79978 10.5902 3.61557 10.6824 3.41695 10.7053C3.21832 10.7281 3.01799 10.6802 2.85118 10.57C2.68436 10.4598 2.56173 10.2943 2.50486 10.1026C2.44798 9.91097 2.46049 9.70538 2.54019 9.52201C2.5867 9.41803 2.6537 9.3245 2.73719 9.24701L3.53719 8.44901L2.73719 7.64901C2.62941 7.52859 2.55836 7.37982 2.53247 7.2203C2.50658 7.06078 2.52692 6.89718 2.59109 6.74885C2.65526 6.60053 2.76057 6.47369 2.89456 6.38333C3.02856 6.29298 3.18563 6.2429 3.34719 6.23901C3.56348 6.23245 3.77413 6.30863 3.93619 6.45201L4.73619 7.25201L5.53819 6.45201C5.69751 6.29324 5.91327 6.20409 6.13819 6.20409C6.36312 6.20409 6.57887 6.29324 6.73819 6.45201V6.45001ZM23.7872 4.69001C22.3192 4.69001 21.2732 5.50001 21.2732 6.26401C21.2732 7.02701 22.3192 7.83901 23.7882 7.83901C25.2562 7.83901 26.3022 7.02701 26.3022 6.26401C26.3022 5.50201 25.2562 4.68901 23.7882 4.68901L23.7872 4.69001ZM13.9372 2.00001C14.3116 2.0008 14.6705 2.14975 14.9355 2.41433C15.2004 2.6789 15.3499 3.03758 15.3512 3.41201C15.3515 3.59776 15.315 3.78174 15.244 3.95336C15.1729 4.12499 15.0686 4.28089 14.9372 4.4121C14.8057 4.5433 14.6496 4.64724 14.4778 4.71793C14.306 4.78862 14.1219 4.82467 13.9362 4.82401C13.5616 4.82348 13.2024 4.67465 12.9373 4.41004C12.6721 4.14544 12.5225 3.78661 12.5212 3.41201C12.5209 3.22626 12.5574 3.04228 12.6284 2.87065C12.6995 2.69903 12.8037 2.54313 12.9352 2.41192C13.0667 2.28071 13.2228 2.17678 13.3946 2.10609C13.5664 2.0354 13.7504 1.99935 13.9362 2.00001H13.9372Z" fill="#5D1735"/>
</svg>
