<svg width="30" height="30" viewBox="0 0 30 30" fill="none" xmlns="http://www.w3.org/2000/svg">
<path fill-rule="evenodd" clip-rule="evenodd" d="M14.9999 3.13C9.05588 3.13 4.25988 7.536 4.25988 13.87C4.25988 16.043 4.81988 17.606 5.77188 18.738C5.59971 18.0413 5.48004 17.3326 5.41388 16.618C5.18488 14.123 5.75988 12.231 6.92788 10.863C8.08288 9.509 9.75688 8.739 11.5909 8.353H11.5979L11.9529 8.283L12.1419 8.251L12.5109 8.193L12.8859 8.146L13.2669 8.106L13.4599 8.089L13.8399 8.063L14.0319 8.053L14.2279 8.043L14.6079 8.033L14.9529 8.03L15.3359 8.033L15.7269 8.043L15.9189 8.053L16.1149 8.063L16.4949 8.089L16.6879 8.107L17.0599 8.146L17.4349 8.193L17.8049 8.251L17.9929 8.282L18.3529 8.353L18.5519 8.397C20.3399 8.802 21.9629 9.585 23.0789 10.936C24.2049 12.298 24.7579 14.166 24.5319 16.619C24.4619 17.362 24.3349 18.099 24.1519 18.823C25.1489 17.685 25.7369 16.096 25.7369 13.87C25.7379 7.536 20.9439 3.13 14.9999 3.13ZM3.12988 13.87C3.13088 6.883 8.45788 2 14.9999 2C21.5399 2 26.8689 6.883 26.8689 13.869C26.8689 17.36 25.5289 19.626 23.3049 20.982L21.8449 21.874L22.4869 20.288C22.9579 19.125 23.2829 17.855 23.4069 16.513C23.6109 14.293 23.1059 12.74 22.2089 11.655C21.3049 10.561 19.9439 9.87 18.3049 9.498H18.3029L18.1259 9.458L17.7879 9.393L17.6229 9.365L17.2779 9.311L16.9329 9.267L16.5779 9.231L16.4039 9.215L16.0419 9.19L15.8629 9.18L15.6829 9.173L15.3169 9.163L14.9499 9.159L14.6309 9.162L14.2649 9.173L14.0849 9.181L13.9049 9.191L13.5449 9.215L13.3719 9.231L13.0169 9.267L12.6699 9.311L12.3249 9.365L12.1599 9.393L11.8199 9.46C10.1349 9.814 8.72588 10.497 7.78788 11.595C6.86088 12.683 6.33388 14.252 6.54088 16.513C6.66288 17.839 6.98188 19.095 7.44488 20.247L8.09188 21.855L6.62188 20.937C4.43988 19.576 3.13188 17.32 3.13188 13.869L3.12988 13.87Z" fill="#5D1735"/>
<path fill-rule="evenodd" clip-rule="evenodd" d="M14.9528 8.02905L15.3378 8.03205L15.7278 8.04205L15.9198 8.05205L16.1158 8.06205L16.4958 8.08805L16.6888 8.10605L17.0608 8.14505L17.4358 8.19205L17.8058 8.25005L17.9938 8.28105L18.3538 8.35205C20.1898 8.73805 21.8638 9.50805 23.0188 10.8621C24.1858 12.2301 24.7618 14.1221 24.5328 16.6161C24.2626 19.5563 23.0921 22.3415 21.1808 24.5921C19.4488 26.6041 17.2408 27.9201 15.1368 27.9951H15.1298L14.9998 28.0001L14.8118 27.9951C12.7078 27.9221 10.4988 26.6051 8.76678 24.5921C6.8555 22.3415 5.68495 19.5563 5.41478 16.6161C5.18578 14.1201 5.76078 12.2301 6.92878 10.8621C8.08378 9.50805 9.75778 8.73805 11.5918 8.35205H11.5988L11.9538 8.28205L12.1428 8.25005L12.5118 8.19205L12.8868 8.14505L13.2678 8.10505L13.4608 8.08805L13.8378 8.06205C13.966 8.05378 14.0944 8.04711 14.2228 8.04205H14.2288L14.6088 8.03205L14.9538 8.02905H14.9528ZM14.9498 9.15905L14.6308 9.16205L14.2638 9.17305L13.9068 9.18905L13.5468 9.21605L13.3698 9.23105L13.0168 9.26705L12.6698 9.31105L12.3248 9.36505L12.1598 9.39305L11.8198 9.46005C10.1348 9.81405 8.72578 10.4971 7.78778 11.5951C6.86078 12.6831 6.33378 14.2521 6.54078 16.5131C6.78943 19.2191 7.86595 21.7827 9.62378 23.8551C11.2318 25.7241 13.1678 26.8051 14.8458 26.8661L14.9958 26.8681L15.0988 26.8661C16.7788 26.8061 18.7148 25.7241 20.3238 23.8561C22.0818 21.7835 23.1583 19.2194 23.4068 16.5131C23.6158 14.2521 23.0868 12.6831 22.1598 11.5961C21.2218 10.4961 19.8128 9.81405 18.1268 9.46005L17.7878 9.39305L17.6228 9.36505L17.2778 9.31105L16.9328 9.26705L16.5778 9.23105L16.4038 9.21505L16.0418 9.19005L15.8628 9.18005L15.6828 9.17305L15.3168 9.16305L14.9498 9.15905Z" fill="#5D1735"/>
<path fill-rule="evenodd" clip-rule="evenodd" d="M17.7202 22.582C17.7638 22.6423 17.795 22.7106 17.8121 22.783C17.8292 22.8555 17.8318 22.9306 17.8197 23.004C17.8076 23.0775 17.7811 23.1478 17.7417 23.2109C17.7023 23.2741 17.6508 23.3288 17.5902 23.372C16.8388 23.9237 15.9324 24.224 15.0002 24.23C14.068 24.2242 13.1615 23.9239 12.4102 23.372C12.2883 23.2846 12.2062 23.1523 12.1818 23.0044C12.1574 22.8564 12.1928 22.7048 12.2802 22.583C12.3676 22.4611 12.4998 22.3789 12.6478 22.3545C12.7957 22.3302 12.9473 22.3656 13.0692 22.453C13.6532 22.871 14.3092 23.1 15.0002 23.1C15.6902 23.1 16.3472 22.87 16.9312 22.452C16.9915 22.4085 17.0599 22.3773 17.1323 22.3603C17.2047 22.3433 17.2798 22.3408 17.3532 22.3529C17.4266 22.365 17.4969 22.3914 17.56 22.4307C17.6232 22.47 17.678 22.5214 17.7212 22.582H17.7202ZM21.4132 16.469C21.4678 16.5194 21.5119 16.5802 21.543 16.6478C21.5741 16.7154 21.5915 16.7884 21.5943 16.8627C21.5971 16.9371 21.5852 17.0112 21.5593 17.0809C21.5333 17.1506 21.4939 17.2145 21.4432 17.269C20.9252 17.825 20.2702 18.202 19.5212 18.202C18.7732 18.202 18.1182 17.825 17.6002 17.268C17.5496 17.2135 17.5103 17.1497 17.4844 17.08C17.4585 17.0104 17.4466 16.9363 17.4494 16.8621C17.4521 16.7879 17.4694 16.7149 17.5004 16.6473C17.5313 16.5798 17.5753 16.519 17.6297 16.4685C17.6841 16.4179 17.748 16.3786 17.8176 16.3527C17.8873 16.3268 17.9613 16.3149 18.0356 16.3176C18.1098 16.3204 18.1828 16.3377 18.2503 16.3686C18.3178 16.3996 18.3786 16.4435 18.4292 16.498C18.8042 16.902 19.1782 17.071 19.5222 17.071C19.8672 17.071 20.2412 16.902 20.6142 16.498C20.6647 16.4433 20.7254 16.3992 20.793 16.3681C20.8606 16.337 20.9336 16.3196 21.008 16.3168C21.0823 16.314 21.1564 16.3259 21.2261 16.3519C21.2959 16.3778 21.3598 16.4173 21.4142 16.468L21.4132 16.469ZM22.2432 14.952C22.2865 14.8915 22.3175 14.8231 22.3343 14.7507C22.3512 14.6782 22.3536 14.6032 22.3414 14.5298C22.3292 14.4564 22.3027 14.3862 22.2634 14.3231C22.2241 14.26 22.1727 14.2052 22.1122 14.162C21.3609 13.61 20.4544 13.3097 19.5222 13.304C18.5722 13.304 17.6882 13.621 16.9312 14.162C16.8145 14.2514 16.7372 14.3828 16.7157 14.5283C16.6942 14.6737 16.7301 14.8218 16.8159 14.9413C16.9017 15.0607 17.0305 15.142 17.1753 15.1681C17.32 15.1942 17.4691 15.1629 17.5912 15.081C18.1742 14.663 18.8312 14.434 19.5212 14.434C20.2122 14.434 20.8692 14.664 21.4522 15.081C21.5124 15.1247 21.5807 15.1562 21.6531 15.1734C21.7255 15.1906 21.8006 15.1933 21.8741 15.1813C21.9476 15.1693 22.0179 15.1429 22.0811 15.1035C22.1443 15.0641 22.2001 15.0126 22.2432 14.952ZM13.1992 14.952C13.2425 14.8916 13.2736 14.8232 13.2905 14.7508C13.3074 14.6784 13.3099 14.6034 13.2979 14.53C13.2858 14.4567 13.2594 14.3864 13.2201 14.3232C13.1809 14.2601 13.1296 14.2053 13.0692 14.162C12.3179 13.61 11.4114 13.3097 10.4792 13.304C9.52919 13.304 8.64519 13.621 7.88919 14.162C7.77471 14.2521 7.6994 14.3829 7.67895 14.5272C7.65849 14.6715 7.69446 14.8181 7.77938 14.9365C7.86429 15.0549 7.9916 15.136 8.13481 15.1629C8.27802 15.1898 8.42609 15.1605 8.5482 15.081C9.13219 14.663 9.78819 14.434 10.4782 14.434C11.1692 14.434 11.8262 14.664 12.4102 15.081C12.4704 15.1247 12.5387 15.1562 12.6111 15.1734C12.6835 15.1906 12.7586 15.1933 12.8321 15.1813C12.9056 15.1693 12.9759 15.1429 13.0391 15.1035C13.1023 15.0641 13.1561 15.0126 13.1992 14.952ZM12.3702 16.469C12.4249 16.5194 12.4692 16.5801 12.5003 16.6477C12.5315 16.7153 12.549 16.7883 12.5517 16.8627C12.5545 16.9371 12.5426 17.0113 12.5166 17.081C12.4906 17.1507 12.451 17.2146 12.4002 17.269C11.8822 17.825 11.2272 18.202 10.4792 18.202C9.72919 18.202 9.07519 17.825 8.55719 17.268C8.45509 17.158 8.40083 17.012 8.40636 16.8621C8.41189 16.7122 8.47676 16.5706 8.58669 16.4685C8.69663 16.3663 8.84262 16.3121 8.99255 16.3176C9.14249 16.3232 9.28409 16.388 9.38619 16.498C9.76119 16.902 10.1352 17.071 10.4792 17.071C10.8242 17.071 11.1982 16.902 11.5712 16.498C11.6217 16.4433 11.6824 16.3992 11.75 16.3681C11.8176 16.337 11.8906 16.3196 11.965 16.3168C12.0393 16.314 12.1134 16.3259 12.1831 16.3519C12.2529 16.3778 12.3168 16.4173 12.3712 16.468L12.3702 16.469Z" fill="#5D1735"/>
</svg>
