<svg width="24" height="24" viewBox="0 0 24 24" fill="none" xmlns="http://www.w3.org/2000/svg">
<path fill-rule="evenodd" clip-rule="evenodd" d="M14.1038 5.75502V5.79502L14.1078 5.91702C14.1278 6.59702 14.1678 7.27502 14.2278 7.95202C14.3388 9.22602 14.5498 10.819 14.9428 12.141C15.3518 13.519 15.9288 14.057 16.4048 14.443C16.4468 14.477 16.4908 14.513 16.5368 14.548C16.7398 14.708 16.9628 14.885 17.1298 15.092C17.3598 15.376 17.4908 15.718 17.4908 16.185C17.4908 16.665 17.2808 17.059 17.0048 17.367C16.7318 17.67 16.3808 17.905 16.0518 18.08C15.6428 18.296 15.2118 18.466 14.7648 18.586L14.7408 18.593L14.7338 18.594H14.7318L14.6378 18.217L14.7308 18.595C14.6278 18.6203 14.5189 18.6037 14.4281 18.5488C14.3374 18.4938 14.2722 18.4051 14.2468 18.302C14.2215 18.199 14.2381 18.0901 14.2931 17.9993C14.348 17.9086 14.4368 17.8433 14.5398 17.818H14.5438L14.5608 17.813C14.5758 17.809 14.5998 17.803 14.6308 17.793C14.9924 17.6903 15.3423 17.5502 15.6748 17.375C15.9598 17.223 16.2228 17.04 16.4098 16.832C16.5938 16.627 16.6918 16.414 16.6918 16.185C16.6918 15.892 16.6158 15.73 16.5068 15.595C16.4018 15.464 16.2668 15.357 16.0728 15.202L15.9018 15.065C15.3298 14.602 14.6408 13.935 14.1758 12.368C13.7598 10.969 13.5438 9.31402 13.4298 8.02202C13.3658 7.28645 13.3241 6.54911 13.3048 5.81102V5.76602C13.3035 5.65993 13.3444 5.55666 13.4184 5.48071C13.4925 5.40476 13.5937 5.36134 13.6998 5.36002C13.8059 5.35869 13.9082 5.39956 13.9841 5.47364C14.0601 5.54772 14.1025 5.64893 14.1038 5.75502ZM9.70682 5.75502V5.79502C9.68855 6.51513 9.64753 7.23449 9.58382 7.95202C9.47182 9.22602 9.26082 10.819 8.86882 12.141C8.45882 13.519 7.88282 14.057 7.40582 14.443L7.27482 14.548C7.07182 14.708 6.84782 14.885 6.68082 15.092C6.45182 15.376 6.31982 15.718 6.31982 16.185C6.31982 16.665 6.52982 17.059 6.80582 17.367C7.07882 17.67 7.43082 17.905 7.75982 18.08C8.16882 18.296 8.59982 18.466 9.04582 18.586L9.06982 18.593L9.07682 18.594H9.07882L9.07982 18.595C9.13084 18.6076 9.18384 18.6101 9.2358 18.6022C9.28776 18.5943 9.33766 18.5763 9.38265 18.5491C9.42764 18.5219 9.46684 18.4862 9.49801 18.4439C9.52919 18.4016 9.55172 18.3535 9.56432 18.3025C9.57693 18.2515 9.57937 18.1985 9.57149 18.1465C9.56361 18.0946 9.54558 18.0447 9.51842 17.9997C9.49126 17.9547 9.4555 17.9155 9.41319 17.8843C9.37088 17.8532 9.32284 17.8306 9.27182 17.818H9.26782L9.25082 17.813C8.86443 17.7087 8.49081 17.5618 8.13682 17.375C7.86272 17.2367 7.6139 17.0531 7.40082 16.832C7.21682 16.627 7.11982 16.414 7.11982 16.185C7.11982 15.892 7.19482 15.73 7.30382 15.595C7.40982 15.464 7.54382 15.357 7.73882 15.202L7.90982 15.065C8.48082 14.602 9.16982 13.935 9.63582 12.368C10.0508 10.969 10.2678 9.31402 10.3808 8.02202C10.4448 7.28602 10.4868 6.54902 10.5068 5.81102V5.76602C10.5075 5.71349 10.4978 5.66034 10.4783 5.61156C10.4588 5.56278 10.4299 5.51832 10.3932 5.48071C10.3565 5.4431 10.3128 5.41309 10.2645 5.39238C10.2162 5.37167 10.1644 5.36067 10.1118 5.36002C10.0593 5.35936 10.0072 5.36906 9.95837 5.38855C9.90959 5.40805 9.86512 5.43696 9.82752 5.47364C9.78991 5.51032 9.75989 5.55404 9.73919 5.60232C9.71848 5.6506 9.70748 5.70249 9.70682 5.75502Z" fill="#5D1735"/>
<path fill-rule="evenodd" clip-rule="evenodd" d="M8.1829 16.111C8.1829 16.0049 8.22505 15.9032 8.30006 15.8281C8.37507 15.7531 8.47682 15.711 8.5829 15.711C9.5629 15.711 10.0729 16.221 10.4829 16.631L10.4949 16.643C10.8979 17.047 11.2029 17.341 11.8419 17.341C12.4919 17.341 12.8569 17.034 13.2859 16.634L13.3529 16.571C13.7579 16.191 14.2679 15.711 15.1009 15.711C15.207 15.711 15.3087 15.7531 15.3837 15.8281C15.4588 15.9032 15.5009 16.0049 15.5009 16.111C15.5009 16.2171 15.4588 16.3188 15.3837 16.3938C15.3087 16.4688 15.207 16.511 15.1009 16.511C14.5889 16.511 14.2949 16.787 13.8449 17.207L13.8319 17.219C13.3869 17.634 12.8219 18.141 11.8419 18.141C10.8619 18.141 10.3519 17.631 9.9419 17.221L9.9289 17.209C9.5259 16.806 9.2219 16.511 8.5829 16.511C8.47682 16.511 8.37507 16.4688 8.30006 16.3938C8.22505 16.3188 8.1829 16.2171 8.1829 16.111ZM7.3889 11C7.46377 10.9248 7.5058 10.8231 7.5058 10.717C7.5058 10.6109 7.46377 10.5091 7.3889 10.434L6.0299 9.07499C5.99274 9.03782 5.94862 9.00834 5.90006 8.98823C5.8515 8.96812 5.79946 8.95776 5.7469 8.95776C5.69434 8.95776 5.6423 8.96812 5.59374 8.98823C5.54519 9.00834 5.50107 9.03782 5.4639 9.07499C5.42674 9.11215 5.39726 9.15627 5.37714 9.20483C5.35703 9.25338 5.34668 9.30543 5.34668 9.35799C5.34668 9.41054 5.35703 9.46259 5.37714 9.51114C5.39726 9.5597 5.42674 9.60382 5.4639 9.64099L6.5389 10.715L5.4639 11.79C5.42674 11.8271 5.39726 11.8713 5.37714 11.9198C5.35703 11.9684 5.34668 12.0204 5.34668 12.073C5.34668 12.1255 5.35703 12.1776 5.37714 12.2261C5.39726 12.2747 5.42674 12.3188 5.4639 12.356C5.50107 12.3931 5.54519 12.4226 5.59374 12.4427C5.6423 12.4629 5.69434 12.4732 5.7469 12.4732C5.79946 12.4732 5.8515 12.4629 5.90006 12.4427C5.94862 12.4226 5.99274 12.3931 6.0299 12.356L7.3879 10.998L7.3889 11Z" fill="#5D1735"/>
<path fill-rule="evenodd" clip-rule="evenodd" d="M7.1021 10.716C7.1021 10.6634 7.09175 10.6114 7.07165 10.5629C7.05155 10.5144 7.02208 10.4703 6.98494 10.4331C6.9478 10.396 6.9037 10.3665 6.85517 10.3464C6.80664 10.3263 6.75463 10.316 6.7021 10.316H4.0001C3.89401 10.316 3.79227 10.3581 3.71726 10.4331C3.64224 10.5081 3.6001 10.6099 3.6001 10.716C3.6001 10.822 3.64224 10.9238 3.71726 10.9988C3.79227 11.0738 3.89401 11.116 4.0001 11.116H6.7021C6.75463 11.116 6.80664 11.1056 6.85517 11.0855C6.9037 11.0654 6.9478 11.0359 6.98494 10.9988C7.02208 10.9617 7.05155 10.9176 7.07165 10.869C7.09175 10.8205 7.1021 10.7685 7.1021 10.716ZM16.6111 11C16.5739 10.9628 16.5444 10.9187 16.5243 10.8701C16.5041 10.8216 16.4938 10.7695 16.4938 10.717C16.4938 10.6644 16.5041 10.6123 16.5243 10.5638C16.5444 10.5152 16.5739 10.4711 16.6111 10.434L17.9691 9.07596C18.0442 9.00091 18.146 8.95874 18.2521 8.95874C18.3582 8.95874 18.46 9.00091 18.5351 9.07596C18.6102 9.15102 18.6523 9.25282 18.6523 9.35896C18.6523 9.46511 18.6102 9.56691 18.5351 9.64196L17.4601 10.716L18.5351 11.791C18.6102 11.866 18.6523 11.9678 18.6523 12.074C18.6523 12.1801 18.6102 12.2819 18.5351 12.357C18.46 12.432 18.3582 12.4742 18.2521 12.4742C18.146 12.4742 18.0442 12.432 17.9691 12.357L16.6111 10.999V11Z" fill="#5D1735"/>
<path fill-rule="evenodd" clip-rule="evenodd" d="M16.8979 10.716C16.8979 10.61 16.9401 10.5082 17.0151 10.4332C17.0901 10.3582 17.1919 10.316 17.2979 10.316H20.0009C20.107 10.316 20.2088 10.3582 20.2838 10.4332C20.3588 10.5082 20.4009 10.61 20.4009 10.716C20.4009 10.8221 20.3588 10.9239 20.2838 10.9989C20.2088 11.0739 20.107 11.116 20.0009 11.116H17.2979C17.1919 11.116 17.0901 11.0739 17.0151 10.9989C16.9401 10.9239 16.8979 10.8221 16.8979 10.716Z" fill="#5D1735"/>
</svg>
