<svg width="24" height="24" viewBox="0 0 24 24" fill="none" xmlns="http://www.w3.org/2000/svg">
<path d="M14.7841 6.08797C14.6357 6.16724 14.5241 6.30123 14.4729 6.46149C14.4217 6.62175 14.435 6.79564 14.51 6.94624C14.585 7.09684 14.7157 7.21226 14.8745 7.26801C15.0332 7.32375 15.2074 7.31541 15.3601 7.24477L14.7841 6.08797ZM20.3257 13.8416C20.3257 13.6701 20.2576 13.5057 20.1364 13.3845C20.0151 13.2633 19.8507 13.1952 19.6793 13.1952C19.5078 13.1952 19.3434 13.2633 19.2222 13.3845C19.101 13.5057 19.0329 13.6701 19.0329 13.8416H20.3257ZM12.4585 1.94557C12.3366 1.83053 12.1748 1.76735 12.0072 1.76933C11.8396 1.77132 11.6793 1.83833 11.5602 1.95622C11.441 2.07411 11.3723 2.23367 11.3686 2.40123C11.3648 2.5688 11.4263 2.73127 11.5401 2.85437L12.4585 1.94557ZM15.8401 6.27837L16.2993 6.73277C16.4191 6.61174 16.4863 6.44829 16.4863 6.27797C16.4863 6.10764 16.4191 5.9442 16.2993 5.82317L15.8401 6.27837ZM11.5409 9.70237C11.4778 9.76191 11.4273 9.83354 11.3925 9.91299C11.3577 9.99244 11.3392 10.0781 11.3382 10.1648C11.3371 10.2516 11.3536 10.3376 11.3865 10.4179C11.4195 10.4981 11.4682 10.5709 11.5299 10.632C11.5915 10.693 11.6648 10.741 11.7454 10.773C11.826 10.8051 11.9123 10.8207 11.999 10.8187C12.0857 10.8168 12.1712 10.7974 12.2502 10.7618C12.3293 10.7261 12.4004 10.6749 12.4593 10.6112L11.5409 9.70157V9.70237ZM15.0721 6.66637L15.3601 7.24477H15.3617L15.3633 7.24317C15.3768 7.23709 15.3899 7.23014 15.4025 7.22237C15.4217 7.21117 15.4465 7.19677 15.4745 7.17757C15.5225 7.14557 15.6137 7.07917 15.6945 6.97757C15.7628 6.89343 15.8125 6.79567 15.8401 6.69083C15.8677 6.58599 15.8726 6.47646 15.8545 6.36957C15.8025 6.07677 15.6001 5.90717 15.4633 5.82397C15.2105 5.66877 14.8281 5.58717 14.3409 5.53277C13.8209 5.47437 13.0713 5.43757 12.0001 5.43757V6.73117C13.0489 6.73117 13.7441 6.76717 14.1977 6.81757C14.6841 6.87197 14.8049 6.93597 14.7897 6.92637C14.7341 6.88839 14.687 6.83938 14.6512 6.7824C14.6155 6.72542 14.5918 6.66169 14.5817 6.59517C14.5678 6.52163 14.5696 6.44599 14.5869 6.3732C14.6043 6.3004 14.6369 6.2321 14.6825 6.17277C14.7201 6.12557 14.7529 6.10557 14.7537 6.10477C14.7598 6.10036 14.7662 6.09635 14.7729 6.09277L14.7777 6.09037L14.7809 6.08877C14.7817 6.08855 14.7833 6.08828 14.7841 6.08797L15.0721 6.66637ZM12.0001 5.43757C10.35 5.43778 8.73776 5.93227 7.37048 6.85597L8.09448 7.92637C9.24802 7.14737 10.6082 6.73114 12.0001 6.73117V5.43757ZM7.37048 6.85597C5.9992 7.78363 4.9331 9.09635 4.30648 10.6288L5.50328 11.1176C6.03341 9.82134 6.93528 8.71099 8.09528 7.92637L7.37048 6.85597ZM4.30648 10.628C3.67723 12.1641 3.51284 13.8512 3.83368 15.48L5.10248 15.2304C4.83031 13.8501 4.9694 12.4203 5.50248 11.1184L4.30648 10.628ZM3.83368 15.48C4.15368 17.1064 4.94568 18.6024 6.11048 19.7816L7.03048 18.872C6.04368 17.8741 5.37304 16.6074 5.10248 15.2304L3.83368 15.48ZM6.11048 19.7816C7.27097 20.9561 8.75524 21.7571 10.3737 22.084L10.6297 20.8168C9.26308 20.5411 8.00889 19.8643 7.02888 18.8728L6.11048 19.7816ZM10.3745 22.084C11.9905 22.4088 13.6673 22.2416 15.1881 21.6048L14.6889 20.4128C13.4063 20.9499 11.993 21.0906 10.6297 20.8168L10.3745 22.084ZM15.1881 21.6048C16.7127 20.9654 18.0138 19.8876 18.9249 18.508L17.8449 17.796C17.0752 18.9613 15.9767 19.8718 14.6889 20.412L15.1881 21.6048ZM18.9249 18.508C19.8399 17.1232 20.3274 15.5006 20.3265 13.8408H19.0337C19.0341 15.2469 18.621 16.6221 17.8457 17.7952L18.9249 18.508ZM11.5409 2.85357L15.3809 6.73197L16.2993 5.82317L12.4593 1.94477L11.5409 2.85357ZM15.3809 5.82237L11.5409 9.70157L12.4593 10.6104L16.2993 6.73197L15.3809 5.82237Z" fill="#5D1735"/>
</svg>
