<svg width="30" height="30" viewBox="0 0 30 30" fill="none" xmlns="http://www.w3.org/2000/svg">
<path fill-rule="evenodd" clip-rule="evenodd" d="M14.9998 2C21.5718 2 26.8998 7.327 26.8998 13.9C26.8998 17.33 25.4488 20.42 23.1258 22.593L26.4148 22.591C26.8948 22.591 27.2908 22.954 27.3418 23.421L27.3468 23.524C27.3468 24.1119 27.231 24.694 27.006 25.2371C26.781 25.7802 26.4512 26.2737 26.0355 26.6894C25.6197 27.105 25.1262 27.4347 24.583 27.6596C24.0399 27.8845 23.4577 28.0001 22.8698 28H7.12883C5.94172 28 4.80323 27.5284 3.96382 26.689C3.12441 25.8496 2.65283 24.7111 2.65283 23.524C2.65283 23.008 3.06983 22.591 3.58583 22.591L6.87383 22.593C5.68144 21.481 4.73102 20.1352 4.08187 18.6395C3.43271 17.1438 3.09875 15.5305 3.10083 13.9C3.09983 7.327 8.42683 2 14.9998 2ZM25.6538 24.202H4.34683L4.37383 24.31C4.53737 24.8819 4.87471 25.3887 5.33912 25.7603C5.80354 26.1319 6.37203 26.3499 6.96583 26.384L7.12883 26.389H22.8708C23.4937 26.3888 24.0995 26.1856 24.5966 25.8103C25.0937 25.435 25.455 24.908 25.6258 24.309L25.6538 24.202ZM4.71183 13.9C4.71183 8.218 9.31783 3.61 14.9998 3.61C20.6818 3.61 25.2878 8.218 25.2878 13.9L25.2828 14.2C25.2356 15.8542 24.7896 17.4725 23.9828 18.9174C23.176 20.3622 22.0323 21.5909 20.6488 22.499L20.5038 22.591H9.49483L9.35183 22.5C7.92564 21.5641 6.75483 20.2879 5.94496 18.7865C5.1351 17.2852 4.71066 15.6059 4.71183 13.9ZM21.0128 13.232C21.1512 13.3709 21.2343 13.5554 21.2464 13.751C21.2586 13.9467 21.199 14.1401 21.0788 14.295L21.0118 14.371L15.8218 19.563C15.6767 19.707 15.4824 19.7904 15.2781 19.7965C15.0738 19.8026 14.8748 19.7308 14.7214 19.5957C14.568 19.4606 14.4717 19.2723 14.4519 19.0689C14.4321 18.8655 14.4904 18.6621 14.6148 18.5L14.6818 18.424L19.8728 13.232C20.0241 13.081 20.2291 12.9963 20.4428 12.9963C20.6566 12.9963 20.8615 13.081 21.0128 13.232ZM20.1298 9.548C20.256 9.38604 20.3156 9.18205 20.2964 8.97766C20.2773 8.77327 20.1809 8.58388 20.0269 8.44813C19.8729 8.31238 19.6729 8.24051 19.4678 8.24717C19.2626 8.25384 19.0677 8.33854 18.9228 8.484L9.93483 17.474L9.86683 17.55C9.74235 17.7121 9.68412 17.9155 9.7039 18.1189C9.72369 18.3223 9.82003 18.5106 9.97341 18.6457C10.1268 18.7808 10.3258 18.8526 10.5301 18.8465C10.7344 18.8404 10.9287 18.757 11.0738 18.613L20.0618 9.624L20.1298 9.548ZM10.8698 11.979C11.009 12.1175 11.0927 12.3022 11.1052 12.4981C11.1177 12.6941 11.0582 12.8879 10.9378 13.043L10.8708 13.119L10.1238 13.865C9.97881 14.0101 9.7839 14.0945 9.57884 14.1009C9.37378 14.1072 9.174 14.0352 9.02022 13.8994C8.86644 13.7636 8.77023 13.5743 8.75121 13.37C8.73218 13.1657 8.79177 12.9619 8.91783 12.8L8.98383 12.725L9.73083 11.978C9.80568 11.9031 9.89454 11.8437 9.99234 11.8032C10.0901 11.7627 10.195 11.7419 10.3008 11.7419C10.4067 11.7419 10.5115 11.7627 10.6093 11.8032C10.7071 11.8437 10.796 11.9031 10.8708 11.978L10.8698 11.979ZM15.3828 8.598C15.509 8.43604 15.5686 8.23205 15.5494 8.02766C15.5303 7.82327 15.4339 7.63388 15.2799 7.49813C15.1259 7.36238 14.9259 7.29051 14.7208 7.29717C14.5156 7.30384 14.3207 7.38854 14.1758 7.534L11.6628 10.048L11.5958 10.124C11.4697 10.286 11.4101 10.4899 11.4292 10.6943C11.4484 10.8987 11.5447 11.0881 11.6987 11.2239C11.8527 11.3596 12.0527 11.4315 12.2579 11.4248C12.4631 11.4182 12.658 11.3335 12.8028 11.188L15.3148 8.675L15.3818 8.599V8.598H15.3828Z" fill="#5D1735"/>
</svg>
