<svg width="24" height="24" viewBox="0 0 24 24" fill="none" xmlns="http://www.w3.org/2000/svg">
<path fill-rule="evenodd" clip-rule="evenodd" d="M12.0239 6.74301C12.0881 6.80808 12.1281 6.8932 12.1372 6.98418C12.1463 7.07515 12.124 7.1665 12.0739 7.24301C12.0529 7.27454 12.0315 7.30587 12.0099 7.33701L12.0089 7.33901L11.8189 7.61401C11.6009 7.93601 11.4769 8.17401 11.4769 8.38101C11.4769 8.58801 11.6009 8.82601 11.8199 9.14801L12.0699 9.51301C12.1222 9.58949 12.1464 9.68178 12.1382 9.77409C12.13 9.8664 12.0901 9.95301 12.0251 10.0191C11.9602 10.0852 11.8743 10.1268 11.7822 10.1366C11.69 10.1464 11.5973 10.1239 11.5199 10.073C11.4881 10.0522 11.4564 10.0312 11.4249 10.01L11.4229 10.008L11.1479 9.81901C10.8259 9.60101 10.5879 9.47701 10.3809 9.47701C10.1739 9.47701 9.9359 9.60101 9.6139 9.82001L9.2489 10.069C9.17241 10.1213 9.08013 10.1455 8.98782 10.1373C8.89551 10.1291 8.80889 10.0892 8.74278 10.0242C8.67666 9.9593 8.63514 9.87342 8.62532 9.78128C8.61549 9.68913 8.63796 9.59642 8.6889 9.51901L8.7519 9.42501L8.7539 9.42301L8.9429 9.14701C9.1609 8.82601 9.2849 8.58801 9.2849 8.38101C9.2849 8.17401 9.1609 7.93601 8.9419 7.61401L8.6929 7.24901C8.64058 7.17252 8.61644 7.08024 8.6246 6.98793C8.63277 6.89561 8.67273 6.809 8.73767 6.74289C8.8026 6.67677 8.88848 6.63525 8.98063 6.62542C9.07278 6.6156 9.16548 6.63807 9.2429 6.68901L9.3369 6.75201L9.3389 6.75301L9.6149 6.94301C9.9359 7.16101 10.1739 7.28501 10.3809 7.28501C10.5439 7.28501 10.7389 7.19501 11.0089 7.02101L11.3589 6.79101L11.3859 6.83101L11.3899 6.82501L11.3649 6.78601L11.5249 6.68601C11.6021 6.63708 11.6937 6.61606 11.7845 6.62643C11.8752 6.6368 11.9597 6.67794 12.0239 6.74301ZM10.7199 8.04001C10.4979 8.09901 10.2639 8.10001 10.0409 8.04201C10.0679 8.15201 10.0839 8.26401 10.0839 8.38101C10.0839 8.49701 10.0679 8.61101 10.0409 8.72001C10.1521 8.692 10.2662 8.67756 10.3809 8.67701C10.4969 8.67701 10.6099 8.69301 10.7189 8.72001C10.6624 8.49682 10.6628 8.26303 10.7199 8.04001Z" fill="#5D1735"/>
<path d="M13.5351 4.595C12.9501 4.945 12.2511 4.945 11.6651 4.595C9.1351 3.085 6.1001 5.213 6.1001 8.495C6.1001 10.561 7.5871 19.1 9.9131 19.1C10.7291 19.1 11.4711 17.142 12.1831 15.17C12.3361 14.745 12.8631 14.745 13.0181 15.17C13.7291 17.142 14.4721 19.1 15.2881 19.1C17.5901 19.1 19.1001 10.627 19.1001 8.495C19.1001 5.214 16.0661 3.085 13.5351 4.595ZM15.2871 18.318C14.8051 18.318 14.2071 16.426 13.6451 14.871C13.2591 13.802 11.9411 13.801 11.5551 14.871C10.9951 16.426 10.3951 18.318 9.9131 18.318C8.4261 18.318 6.7791 10.921 6.7791 8.495C6.7791 5.795 9.2771 4.05 11.3521 5.289C11.7281 5.51792 12.1599 5.639 12.6001 5.639C13.0403 5.639 13.4721 5.51792 13.8481 5.289C15.9211 4.051 18.4211 5.792 18.4211 8.495C18.4211 10.91 16.7751 18.318 15.2871 18.318Z" fill="#5D1735"/>
<path fill-rule="evenodd" clip-rule="evenodd" d="M13.484 4.50903C14.786 3.73203 16.22 3.89203 17.324 4.66603C18.427 5.43903 19.2 6.82304 19.2 8.49604C19.2 9.57304 18.82 12.234 18.153 14.624C17.82 15.819 17.413 16.954 16.942 17.792C16.706 18.211 16.452 18.56 16.179 18.806C15.906 19.052 15.608 19.2 15.287 19.2C15.042 19.2 14.817 19.053 14.615 18.83C14.41 18.607 14.215 18.291 14.025 17.92C13.645 17.177 13.279 16.19 12.924 15.205C12.86 15.029 12.726 14.951 12.6 14.951C12.474 14.951 12.34 15.029 12.276 15.205C11.921 16.189 11.556 17.177 11.176 17.92C10.986 18.291 10.79 18.607 10.586 18.83C10.383 19.053 10.158 19.2 9.913 19.2C9.589 19.2 9.289 19.051 9.014 18.803C8.74 18.556 8.484 18.203 8.249 17.783C7.777 16.939 7.37 15.798 7.038 14.599C6.374 12.2 6 9.54003 6 8.49503C6 6.82303 6.774 5.43903 7.876 4.66603C8.981 3.89203 10.414 3.73203 11.716 4.50903C11.9823 4.6714 12.2881 4.75729 12.6 4.75729C12.9119 4.75729 13.2177 4.6714 13.484 4.50903ZM11.461 14.837C11.668 14.265 12.129 13.969 12.601 13.969C13.071 13.969 13.532 14.265 13.739 14.837L13.959 15.453C14.169 16.048 14.381 16.647 14.588 17.139C14.728 17.471 14.862 17.749 14.99 17.943C15.053 18.04 15.113 18.112 15.166 18.158C15.221 18.205 15.26 18.218 15.287 18.218C15.431 18.218 15.594 18.128 15.775 17.928C15.954 17.731 16.135 17.441 16.315 17.078C16.675 16.355 17.018 15.36 17.315 14.286C17.912 12.136 18.321 9.69004 18.321 8.49604C18.321 7.17504 17.711 6.09503 16.855 5.49603C16 4.89803 14.899 4.77803 13.899 5.37603C13.5075 5.6141 13.0582 5.74001 12.6 5.74001C12.1418 5.74001 11.6925 5.6141 11.301 5.37603C10.301 4.77803 9.199 4.89803 8.345 5.49603C7.489 6.09603 6.879 7.17604 6.879 8.49604C6.879 9.69504 7.288 12.141 7.885 14.29C8.183 15.363 8.525 16.357 8.885 17.08C9.065 17.442 9.247 17.731 9.425 17.929C9.605 18.129 9.769 18.219 9.913 18.219C9.94 18.219 9.979 18.205 10.033 18.159C10.087 18.112 10.147 18.04 10.211 17.943C10.368 17.687 10.501 17.418 10.612 17.139C10.819 16.647 11.031 16.049 11.242 15.453C11.315 15.246 11.387 15.039 11.461 14.837ZM11.352 5.28903C11.728 5.51795 12.1598 5.63904 12.6 5.63904C13.0402 5.63904 13.472 5.51795 13.848 5.28903C15.921 4.05103 18.421 5.79203 18.421 8.49503C18.421 10.911 16.775 18.318 15.287 18.318C14.867 18.318 14.358 16.882 13.863 15.484L13.645 14.871C13.259 13.802 11.941 13.801 11.555 14.871L11.337 15.484C10.842 16.882 10.333 18.318 9.913 18.318C8.426 18.318 6.779 10.921 6.779 8.49503C6.779 5.79503 9.276 4.05003 11.352 5.28903ZM11.665 4.59503C12.25 4.94503 12.95 4.94503 13.535 4.59503C16.066 3.08503 19.1 5.21403 19.1 8.49503C19.1 10.627 17.59 19.1 15.287 19.1C14.471 19.1 13.729 17.142 13.017 15.17C12.864 14.745 12.337 14.745 12.182 15.17C11.471 17.142 10.728 19.1 9.912 19.1C7.588 19.1 6.1 10.56 6.1 8.49503C6.1 5.21303 9.135 3.08503 11.665 4.59503Z" fill="#5D1735"/>
</svg>
